<?xml version="1.0" encoding="utf-8"?>
<!-- Generator: Adobe Illustrator 16.0.0, SVG Export Plug-In . SVG Version: 6.00 Build 0)  -->
<!DOCTYPE svg PUBLIC "-//W3C//DTD SVG 1.1//EN" "http://www.w3.org/Graphics/SVG/1.1/DTD/svg11.dtd">
<svg version="1.1" id="_x3C_Layer_x3E_" xmlns="http://www.w3.org/2000/svg" xmlns:xlink="http://www.w3.org/1999/xlink" x="0px"
	 y="0px" width="608px" height="893px" viewBox="0 0 608 893" enable-background="new 0 0 608 893" xml:space="preserve">
<polyline fill="none" stroke="#000000" stroke-width="3.9237" stroke-linejoin="round" points="245.218,608.016 240.863,637.635 
	232.151,667.254 221.697,686.419 207.323,703.407 193.385,713.86 177.704,720.395 163.33,723.879 148.521,726.492 130.662,727.363 
	111.932,725.621 94.073,723.008 74.037,721.701 31.786,726.492 "/>
<g>
	<path fill="#FFFFFF" d="M338.214,261.441c39.493,29.619,150.718,98.925,180.892,205.055
		c13.91,48.927,17.318,100.802,19.928,151.415c2.595,50.34-7.293,120.431,4.337,153.01S616.5,832,595.857,854.116
		c-10.357,4.884-21.159,9.73-30.518,9.011c-14.113-1.085-24.87-11.688-36.94-19.048c-21.66-13.207-47.206-14.149-71.712-11.427
		c-51.076,5.676-100.765,25.667-150.631,37.433c-26.04,6.144-46.975,1.914-72.599-1.159c-27.314-3.275-55.301-3.316-82.77-4.053
		c-11.455-0.307-18.229-1.29-29.688-0.873c-5.547,0.202-13.597-1.012-21.298,0.744S79.202,874.6,73.5,876.5
		c-19.813,6.604-35.659,13.961-54.152-0.913C9.5,868,10,858.5,19.178,847.319c5.484-6.995,24.432-24.305,26.546-33.276
		c2.213-9.396-5.979-26.427-9.142-35.084c-4.747-12.991-5.727-27.057-7.857-40.692c-7.917-50.672-2.151-103.135,1.711-153.901
		c3.561-46.785-2.833-106.999,21.163-148.994c13.688-23.955,27.429-46.94,50.718-63.287c22.23-15.605,43.766-30.484,63.825-48.76
		c15.249-13.894,28.352-31.653,41.859-47.295c14.878-17.227,31.893-27.801,26.407-52.486c-5.108-22.987-15.494-42.356-18.333-65.888
		c-2.263-18.748-15.654-40.458-25.468-56.729c-9.106-15.096-28.173-33.276-25.81-52.176c2.032-16.252,12.194-49.659,35.578-36.196
		c8.812,5.074,18.344,13.53,28.712,13.53c11.48,0,22.958,0,34.438,0c11.786,0,19.31-3.774,23.031,8.453
		c3.063,10.061,7.373,26.829,13.544,29.006c6.171,2.178,10.089-14.665,15.681-14.374c5.591,0.291,9.103,11.93,18.729,14.81
		c6.157,1.842,23.148,2.273,26.135,10.018c3.831,9.938-10.752,43.549-13.425,54.481c-4.856,19.867-11.4,35.241-20.62,53.682
		c0,0-8.713,23.525-12.198,29.915C310.919,218.465,298.721,231.822,338.214,261.441z"/>
	<path d="M339.88,259.206c11.503,8.504,23.385,16.689,34.982,25.266c11.604,8.571,23.07,17.37,34.159,26.646
		c22.188,18.512,43.166,38.656,61.507,61.128c9.161,11.233,17.61,23.066,25.161,35.468c7.526,12.413,14.118,25.429,19.393,38.993
		c2.64,6.786,4.939,13.682,6.893,20.723c1.923,6.893,3.755,13.978,5.301,21.043c3.159,14.13,5.64,28.395,7.631,42.712
		c3.975,28.646,5.957,57.473,7.687,86.214c0.873,14.54,0.674,29.027,0.352,43.447c-0.372,14.422-0.94,28.795-1.27,43.121
		c-0.153,7.162-0.23,14.313-0.129,21.438c0.106,7.124,0.367,14.224,1.024,21.236c0.643,7.004,1.695,13.949,3.612,20.453l0.768,2.406
		c0.004,0.017,0.058,0.176,0.021,0.075l0.059,0.158l0.119,0.315l0.237,0.632c0.161,0.451,0.31,0.762,0.461,1.128
		c0.616,1.437,1.363,2.972,2.193,4.411c1.65,2.915,3.613,5.726,5.745,8.446c4.278,5.442,9.196,10.531,14.271,15.53
		c5.076,5.008,10.365,9.888,15.49,15.075c2.564,2.594,5.099,5.255,7.522,8.085c2.414,2.837,4.739,5.836,6.696,9.247
		c0.972,1.708,1.845,3.53,2.495,5.513c0.646,1.977,1.073,4.131,1.033,6.369c-0.047,2.234-0.581,4.502-1.52,6.508
		c-0.931,2.017-2.229,3.752-3.647,5.241l-0.05,0.054c-0.261,0.273-0.572,0.488-0.896,0.637l-0.003,0.001
		c-4.524,2.13-9.123,4.26-13.969,6.044c-4.848,1.742-9.992,3.22-15.564,3.325c-0.688,0.04-1.397-0.029-2.096-0.046
		c-0.2-0.012-0.294-0.006-0.583-0.032l-0.464-0.045c-0.32-0.035-0.599-0.053-0.951-0.101c-1.451-0.18-2.749-0.434-4.085-0.746
		c-2.64-0.653-5.18-1.577-7.59-2.683c-4.827-2.217-9.146-5.069-13.287-7.922c-4.13-2.853-8.145-5.774-12.211-8.21l-1.61-0.947
		l-1.539-0.843c-1.041-0.548-2.11-1.114-3.192-1.614c-2.156-1.037-4.366-1.966-6.619-2.787c-9.002-3.334-18.615-5.008-28.313-5.556
		c-9.693-0.548-19.56,0.002-29.25,1.157l-7.411,0.952c-2.458,0.337-4.854,0.766-7.284,1.143c-2.42,0.361-4.847,0.823-7.273,1.291
		c-2.424,0.474-4.857,0.883-7.271,1.431c-19.362,4.037-38.466,9.47-57.559,15.088c-9.547,2.808-19.1,5.668-28.699,8.418
		c-9.594,2.765-19.241,5.42-28.978,7.796l-3.649,0.896l-0.912,0.225l-0.979,0.208l-1.828,0.386c-1.211,0.262-2.429,0.52-3.73,0.72
		c-1.277,0.205-2.561,0.451-3.831,0.621c-5.066,0.729-10.178,1.08-15.274,1.178c-10.21,0.19-20.297-0.881-30.226-2.081l-14.83-1.863
		c-1.214-0.143-2.5-0.315-3.655-0.434l-3.716-0.386c-2.472-0.239-4.968-0.555-7.419-0.731c-9.793-0.854-19.73-1.335-29.638-1.717
		c-9.926-0.327-19.87-0.539-29.834-0.741c-4.993-0.127-9.953-0.186-14.978-0.376c-5.071-0.191-10.037-0.557-14.926-0.717
		c-2.445-0.077-4.881-0.102-7.317-0.071l-3.706,0.092l-0.934,0.021l-1.03-0.001l-1.941-0.04c-5.056-0.174-9.816-0.408-14.329,0.291
		c-0.561,0.088-1.12,0.179-1.665,0.301l-0.412,0.085c-0.156,0.029-0.072,0.01-0.323,0.077l-0.902,0.242
		c-0.323,0.079-0.559,0.165-0.802,0.249l-0.739,0.248l-1.607,0.607c-2.173,0.875-4.363,1.918-6.552,3.004
		c-2.191,1.089-4.384,2.233-6.613,3.38c-2.242,1.144-4.469,2.302-6.988,3.361c-0.304,0.135-0.668,0.257-1,0.384l-0.509,0.188
		l-0.439,0.149l-1.766,0.599l-3.52,1.208c-2.36,0.811-4.741,1.625-7.165,2.393c-4.843,1.526-9.889,2.901-15.233,3.441
		c-5.323,0.553-10.975,0.06-16.174-1.75c-5.202-1.757-9.884-4.791-13.862-8.05c-1.125-0.932-2.165-1.916-3.125-3.015
		c-0.962-1.102-1.846-2.326-2.575-3.679c-1.481-2.691-2.214-5.944-2.02-9.021c0.171-3.089,1.111-5.926,2.317-8.454
		c1.213-2.543,2.721-4.813,4.336-6.933c0.854-1.095,1.537-1.965,2.475-3.059c0.855-0.995,1.71-1.936,2.566-2.869l5.123-5.487
		c3.39-3.622,6.737-7.236,9.814-10.966c1.527-1.864,3.008-3.757,4.274-5.675c0.641-0.956,1.223-1.921,1.698-2.858
		c0.479-0.932,0.843-1.859,0.983-2.561c0.38-1.838,0.274-3.976-0.072-6.208c-0.34-2.225-0.917-4.509-1.596-6.786
		c-1.37-4.568-3.166-9.114-5.021-13.717c-0.922-2.317-1.891-4.609-2.76-7.129c-0.204-0.596-0.411-1.157-0.611-1.782l-0.595-1.903
		c-0.375-1.265-0.726-2.496-1.043-3.751c-2.574-10.016-3.602-20.088-5.039-29.834L25,738.235l-0.522-3.699
		c-0.331-2.479-0.74-4.899-0.983-7.445l-0.828-7.56l-0.605-7.527c-0.701-10.04-1.066-20.093-1.063-30.131
		c0.012-10.036,0.28-20.06,0.743-30.059c0.962-19.997,2.617-39.897,4.156-59.743c0.375-4.965,0.787-9.926,1.042-14.831
		c0.266-4.901,0.458-9.86,0.59-14.814l0.673-29.875c0.561-19.973,1.571-40.179,5.702-60.15c1.013-4.988,2.295-9.942,3.794-14.844
		c1.5-4.899,3.255-9.747,5.375-14.459c0.496-1.191,1.069-2.352,1.635-3.515c0.562-1.165,1.119-2.333,1.754-3.464
		c0.618-1.13,1.228-2.305,1.854-3.397l1.854-3.243c2.503-4.338,5.016-8.684,7.658-12.978c5.268-8.589,10.941-17.056,17.493-24.939
		c3.28-3.932,6.723-7.76,10.465-11.311l1.386-1.347l1.44-1.293c0.967-0.854,1.916-1.73,2.899-2.566
		c2.007-1.627,3.978-3.302,6.087-4.801c2.098-1.583,4.117-2.975,6.156-4.413l6.103-4.303c4.064-2.865,8.111-5.747,12.133-8.646
		c8.028-5.818,16.006-11.678,23.674-17.874c1.948-1.516,3.837-3.094,5.722-4.677c1.875-1.594,3.815-3.118,5.635-4.768l5.523-4.885
		l0.65-0.575l0.682-0.639l1.364-1.276c0.936-0.856,1.739-1.685,2.608-2.526c6.887-6.819,13.323-14.297,19.655-21.909
		c6.358-7.625,12.547-15.412,19.293-23.028c3.443-3.826,6.975-7.375,10.32-10.944c3.335-3.563,6.477-7.141,8.921-10.944
		c2.456-3.795,4.107-7.826,4.716-12.081c0.63-4.257,0.233-8.695-0.853-13.172c-2.15-9.5-5.362-18.711-8.575-28.182
		c-3.227-9.436-6.396-19.16-8.334-29.308c-0.223-1.272-0.476-2.538-0.672-3.816l-0.543-3.848l-0.248-1.786l-0.279-1.642
		c-0.214-1.125-0.463-2.265-0.738-3.397c-1.124-4.536-2.749-9.035-4.621-13.467c-3.765-8.874-8.542-17.456-13.559-25.962
		l-3.813-6.385c-1.292-2.152-2.523-4.221-3.841-6.157c-2.681-3.983-5.678-7.937-8.627-12.014c-2.951-4.079-5.891-8.279-8.508-12.814
		c-2.601-4.531-4.926-9.432-6.211-14.878c-0.636-2.716-0.991-5.563-0.936-8.447c0.067-2.982,0.524-5.533,0.986-8.104
		c0.969-5.13,2.332-10.162,4.208-15.096c1.899-4.916,4.258-9.786,7.838-14.195c1.797-2.187,3.939-4.255,6.568-5.874
		c2.614-1.617,5.773-2.683,8.958-2.846c3.19-0.186,6.271,0.475,8.998,1.521c1.374,0.52,2.669,1.143,3.898,1.831l0.463,0.256
		l0.44,0.256l0.827,0.493l1.674,1.036c4.342,2.758,8.322,5.607,12.407,7.81c2.034,1.096,4.082,2.027,6.12,2.654
		c1.019,0.314,2.033,0.551,3.037,0.698c0.502,0.071,1.001,0.118,1.498,0.151l0.741,0.021l0.926,0.003l14.944,0.04l14.943,0.062
		c2.526,0.003,4.913,0.06,7.258-0.08c2.397-0.111,4.856-0.366,7.625-0.404c1.382-0.013,2.872,0.045,4.479,0.352
		c1.592,0.288,3.348,0.939,4.869,1.977c1.517,1.051,2.716,2.419,3.588,3.789c0.876,1.377,1.483,2.766,1.966,4.122
		c0.496,1.419,0.809,2.567,1.17,3.779l1.048,3.579c0.699,2.371,1.412,4.714,2.175,7.015c0.767,2.295,1.582,4.556,2.507,6.692
		c0.916,2.119,1.973,4.192,3.146,5.672c0.568,0.717,1.197,1.259,1.506,1.383c-0.02-0.007,0.194,0.075-0.023,0.011
		c0.17,0.058,0.338,0.099,0.152,0.045c-0.13-0.027-0.116-0.013-0.184-0.01c-0.095,0.005-0.055,0.041,0.144-0.089
		c0.396-0.232,1.09-0.934,1.714-1.759c0.641-0.835,1.28-1.803,1.929-2.822c1.336-2.048,2.548-4.269,4.594-6.617
		c0.529-0.586,1.137-1.19,1.942-1.773c0.804-0.57,1.876-1.165,3.27-1.366c0.346-0.045,0.698-0.069,1.054-0.057
		c0.782,0.047,0.483,0.045,0.777,0.07c0.065-0.003,0.58,0.097,0.865,0.168c0.369,0.083,0.603,0.174,0.85,0.265
		c0.992,0.373,1.818,0.876,2.499,1.387c1.356,1.033,2.324,2.097,3.211,3.105c0.884,1.014,1.672,1.993,2.448,2.92
		c1.547,1.855,3.06,3.534,4.706,4.824c0.82,0.645,1.667,1.191,2.544,1.625c0.898,0.438,1.732,0.737,2.8,0.988
		c2.169,0.501,4.682,0.878,7.157,1.331c2.496,0.451,5.039,0.952,7.612,1.682c2.567,0.748,5.199,1.646,7.786,3.35
		c1.278,0.861,2.56,1.969,3.573,3.464c0.232,0.393,0.486,0.768,0.678,1.19l0.285,0.633c0.103,0.219,0.202,0.544,0.226,0.609
		c0.085,0.238,0.288,0.951,0.344,1.276c0.091,0.408,0.144,0.796,0.2,1.188c0.341,3.068,0.002,5.729-0.396,8.348
		c-0.864,5.197-2.261,10.08-3.746,14.914c-1.5,4.825-3.145,9.565-4.807,14.274c-1.646,4.699-3.39,9.401-4.799,13.999
		c-0.173,0.572-0.333,1.138-0.477,1.69l-0.495,1.829l-0.985,3.604c-0.616,2.389-1.431,4.845-2.187,7.257
		c-1.568,4.826-3.337,9.538-5.271,14.196c-3.873,9.309-8.447,18.248-13.095,27.087l0.073-0.168
		c-1.418,3.655-2.838,7.296-4.298,10.93c-1.468,3.629-2.916,7.267-4.443,10.884c-0.764,1.809-1.547,3.612-2.384,5.412
		c-0.785,1.783-1.866,3.668-2.827,5.276c-0.953,1.641-1.734,3.298-2.214,5.028c-0.484,1.726-0.666,3.509-0.51,5.284
		c0.135,1.776,0.594,3.53,1.239,5.227c0.635,1.703,1.537,3.327,2.512,4.898c0.508,0.779,1.012,1.557,1.583,2.301
		c0.537,0.762,1.136,1.489,1.73,2.216c1.193,1.451,2.481,2.838,3.807,4.193c1.331,1.35,2.698,2.672,4.124,3.94
		c1.403,1.288,2.867,2.523,4.331,3.754c1.472,1.226,2.961,2.432,4.479,3.612c1.496,1.2,3.055,2.338,4.578,3.511L339.88,259.206z
		 M336.541,263.672c-1.556-1.231-3.155-2.395-4.672-3.681l-2.293-1.902l-2.237-1.978c-0.755-0.646-1.464-1.354-2.192-2.035
		c-0.728-0.681-1.449-1.371-2.141-2.098c-1.41-1.417-2.768-2.897-4.09-4.412c-1.308-1.531-2.569-3.107-3.745-4.762
		c-0.586-0.829-1.172-1.656-1.702-2.531c-0.561-0.849-1.06-1.748-1.557-2.643c-0.949-1.821-1.846-3.688-2.469-5.688
		c-0.633-1.991-1.038-4.083-1.12-6.209c-0.082-2.125,0.193-4.279,0.832-6.295c0.598-2.031,1.565-3.903,2.569-5.636
		c0.51-0.884,1.008-1.666,1.457-2.496c0.43-0.824,0.843-1.674,1.239-2.554c0.796-1.749,1.555-3.535,2.295-5.331
		c1.479-3.593,2.91-7.219,4.274-10.87c1.369-3.648,2.727-7.309,4.034-10.975c0.015-0.039,0.03-0.077,0.047-0.113l0.026-0.055
		c4.262-8.978,8.181-18.091,11.491-27.373c1.633-4.643,3.19-9.327,4.534-14.029c0.635-2.37,1.387-4.647,1.955-7.099l0.91-3.624
		l0.448-1.786c0.162-0.656,0.335-1.289,0.516-1.912c1.46-4.944,3.14-9.604,4.733-14.325c1.604-4.703,3.175-9.394,4.581-14.099
		c1.393-4.697,2.675-9.439,3.392-14.085c0.343-2.294,0.54-4.642,0.293-6.534c-0.039-0.223-0.069-0.453-0.119-0.652
		c-0.022-0.119-0.044-0.191-0.059-0.241c-0.015-0.057-0.018-0.103-0.085-0.284c-0.131-0.387-0.271-0.603-0.453-0.912
		c-0.396-0.565-1.017-1.136-1.807-1.651c-1.588-1.039-3.722-1.813-5.934-2.416c-2.227-0.606-4.582-1.052-6.991-1.459
		c-2.428-0.421-4.852-0.742-7.546-1.328c-1.362-0.297-2.9-0.804-4.242-1.458c-1.364-0.655-2.625-1.459-3.771-2.34
		c-2.298-1.769-4.138-3.82-5.801-5.764c-0.832-0.974-1.618-1.926-2.381-2.78c-0.759-0.857-1.515-1.613-2.151-2.079
		c-0.315-0.235-0.579-0.361-0.753-0.423c-0.045-0.017-0.102-0.04-0.039-0.016c-0.02,0.009,0.198,0-0.049-0.021
		c-0.016-0.003-0.622-0.064-0.151-0.021c0.044,0,0.086,0.002,0.123-0.006c0.154-0.023,0.084-0.036-0.12,0.117
		c-0.202,0.15-0.492,0.42-0.792,0.762c-1.238,1.413-2.489,3.562-3.831,5.704c-0.682,1.086-1.401,2.208-2.267,3.358
		c-0.891,1.139-1.852,2.359-3.553,3.489c-0.843,0.549-1.989,1.063-3.325,1.201c-0.688,0.061-1.302,0.037-2.042-0.112
		c-0.494-0.108-0.622-0.161-0.749-0.197c-0.508-0.176-0.577-0.225-0.884-0.353c-1.965-0.927-3.139-2.211-4.146-3.402
		c-1.929-2.432-3.105-4.867-4.2-7.293c-1.074-2.427-1.965-4.852-2.796-7.273c-0.825-2.421-1.581-4.838-2.31-7.239l-1.082-3.583
		c-0.356-1.172-0.723-2.422-1.061-3.35c-0.357-0.986-0.779-1.886-1.25-2.605c-0.474-0.723-0.977-1.235-1.508-1.607
		c-0.55-0.348-1.166-0.614-2.024-0.762c-0.842-0.155-1.854-0.209-2.96-0.186c-2.213,0.042-4.715,0.307-7.292,0.454
		c-2.628,0.175-5.227,0.135-7.681,0.153l-14.943,0.062l-14.944,0.04l-0.942,0.001l-1.125-0.026c-0.747-0.042-1.488-0.111-2.22-0.211
		c-1.462-0.205-2.88-0.534-4.244-0.946c-2.729-0.827-5.237-1.974-7.592-3.225c-4.701-2.516-8.847-5.475-12.93-8.026l-1.506-0.923
		l-0.78-0.459l-0.368-0.212l-0.356-0.193c-0.946-0.525-1.905-0.977-2.863-1.332c-1.918-0.724-3.828-1.082-5.622-0.965
		c-1.795,0.111-3.501,0.677-5.121,1.678c-1.616,1.004-3.125,2.427-4.474,4.092c-2.708,3.349-4.79,7.549-6.438,11.919
		c-1.646,4.387-2.874,9.016-3.744,13.675c-0.421,2.325-0.801,4.708-0.825,6.71c-0.034,2.097,0.227,4.23,0.732,6.361
		c1.011,4.268,2.973,8.488,5.339,12.57c2.375,4.091,5.159,8.065,8.058,12.045c2.899,3.988,5.939,7.966,8.835,12.239
		c1.49,2.181,2.81,4.393,4.089,6.507l3.866,6.435c5.12,8.635,10.099,17.484,14.151,26.952c2.018,4.735,3.795,9.634,5.077,14.771
		c0.314,1.289,0.599,2.582,0.851,3.903l0.345,2.041l0.266,1.915l0.504,3.551c0.182,1.182,0.421,2.36,0.627,3.541
		c1.81,9.439,4.821,18.724,8.047,28.124c1.604,4.704,3.238,9.447,4.761,14.271c0.77,2.409,1.482,4.846,2.186,7.3l1.004,3.755
		l0.879,3.646c1.264,5.186,1.843,10.85,1.012,16.47c-0.786,5.629-3.046,11.013-6.003,15.566c-2.951,4.588-6.44,8.511-9.898,12.221
		c-3.467,3.7-6.957,7.224-10.179,10.804c-6.48,7.289-12.713,15.093-19.125,22.761c-6.421,7.69-13.002,15.333-20.29,22.528
		c-0.92,0.89-1.86,1.843-2.763,2.667l-1.366,1.274l-0.683,0.637l-0.748,0.664l-5.678,5.006c-1.875,1.692-3.856,3.246-5.779,4.875
		c-1.933,1.617-3.869,3.229-5.856,4.77c-7.842,6.315-15.94,12.242-24.052,18.103c-4.063,2.923-8.144,5.803-12.229,8.667l-6.123,4.29
		c-2.037,1.427-4.121,2.859-6.002,4.275c-1.96,1.378-3.789,2.932-5.658,4.433c-0.916,0.774-1.799,1.587-2.701,2.378l-1.344,1.198
		l-1.296,1.254c-3.499,3.296-6.74,6.881-9.851,10.586c-6.213,7.428-11.695,15.538-16.864,23.91c-2.592,4.184-5.08,8.457-7.568,12.74
		l-1.864,3.238c-0.616,1.067-1.152,2.104-1.734,3.157c-0.59,1.038-1.106,2.119-1.63,3.195c-0.527,1.075-1.063,2.145-1.526,3.254
		c-1.982,4.368-3.641,8.902-5.069,13.522c-1.428,4.619-2.663,9.317-3.646,14.09c-4.016,19.093-5.099,38.877-5.707,58.692
		l-0.763,29.883c-0.15,5.005-0.356,10.001-0.645,15.046c-0.279,5.044-0.707,10.012-1.097,14.979
		c-1.606,19.879-3.32,39.692-4.338,59.5c-0.491,9.902-0.788,19.801-0.833,29.689c-0.036,9.889,0.292,19.76,0.945,29.597l0.568,7.37
		l0.773,7.298c0.217,2.417,0.628,4.913,0.948,7.373l0.51,3.7l0.539,3.678c1.424,9.956,2.418,19.776,4.79,29.092
		c0.29,1.16,0.619,2.326,0.947,3.45l0.511,1.665c0.176,0.563,0.398,1.17,0.595,1.753c0.744,2.194,1.703,4.501,2.616,6.813
		c1.85,4.641,3.714,9.376,5.193,14.359c0.733,2.496,1.381,5.055,1.788,7.757c0.396,2.676,0.609,5.598-0.007,8.655
		c-0.366,1.743-0.987,3.128-1.636,4.411c-0.657,1.28-1.374,2.447-2.122,3.558c-1.489,2.233-3.095,4.261-4.729,6.245
		c-3.278,3.944-6.72,7.63-10.148,11.271l-5.094,5.419c-0.829,0.898-1.653,1.799-2.424,2.69c-0.69,0.791-1.554,1.874-2.234,2.741
		c-2.806,3.634-5.059,7.711-5.281,11.538c-0.112,1.899,0.281,3.689,1.184,5.375c0.879,1.673,2.344,3.281,3.931,4.609
		c0.49,0.398,0.971,0.78,1.421,1.123c0.462,0.351,0.912,0.725,1.39,1.046c0.936,0.683,1.899,1.307,2.873,1.905
		c1.957,1.179,3.999,2.158,6.11,2.889c4.223,1.474,8.722,1.908,13.302,1.457c4.584-0.443,9.22-1.659,13.871-3.113
		c2.328-0.729,4.664-1.519,7.018-2.318l3.551-1.205l1.774-0.595l0.445-0.15l0.366-0.136c0.249-0.098,0.479-0.165,0.744-0.283
		c2.078-0.863,4.286-1.986,6.482-3.102c2.205-1.124,4.432-2.277,6.705-3.398c2.277-1.119,4.589-2.217,7.042-3.195
		c0.632-0.235,1.226-0.475,1.889-0.706l1.035-0.34c0.348-0.114,0.7-0.229,0.983-0.297l0.903-0.239
		c0.048-0.017,0.435-0.112,0.584-0.139l0.503-0.103c0.671-0.146,1.342-0.254,2.012-0.355c5.364-0.805,10.622-0.485,15.504-0.313
		l1.793,0.044l0.838,0.006l0.934-0.019l3.764-0.08c2.545-0.023,5.09,0.012,7.624,0.101c5.068,0.184,10.04,0.566,14.924,0.767
		c4.931,0.204,9.933,0.281,14.899,0.424c9.956,0.235,19.932,0.48,29.919,0.844c10,0.42,19.968,0.932,30.024,1.844
		c2.517,0.191,4.964,0.511,7.45,0.76l3.715,0.398c1.321,0.141,2.504,0.307,3.763,0.459l14.819,1.911
		c9.835,1.209,19.633,2.189,29.361,1.911c4.861-0.124,9.704-0.487,14.497-1.209c1.197-0.167,2.359-0.401,3.541-0.597
		c1.161-0.18,2.378-0.444,3.6-0.717l1.825-0.396l0.848-0.186l0.902-0.221l3.606-0.886c9.622-2.344,19.191-4.972,28.744-7.72
		c9.556-2.733,19.093-5.585,28.662-8.395c19.13-5.62,38.396-11.096,58.059-15.188c2.446-0.554,4.927-0.972,7.392-1.452
		c2.465-0.474,4.933-0.942,7.439-1.316c2.492-0.386,5.003-0.83,7.479-1.167l7.411-0.949c10.085-1.197,20.193-1.76,30.402-1.185
		c10.175,0.578,20.415,2.347,30.119,5.942c2.426,0.888,4.813,1.892,7.146,3.015c1.178,0.546,2.312,1.145,3.474,1.759l1.735,0.954
		l1.61,0.948c4.48,2.69,8.521,5.653,12.588,8.458c4.051,2.798,8.096,5.444,12.335,7.389c2.117,0.972,4.279,1.753,6.476,2.298
		c1.09,0.257,2.239,0.475,3.261,0.604c0.264,0.039,0.606,0.063,0.906,0.096l0.465,0.046l0.351,0.014
		c0.546,0.008,1.081,0.073,1.638,0.036c4.421-0.069,9.02-1.316,13.515-2.943c4.509-1.656,8.965-3.709,13.451-5.821l0.003-0.001
		l-0.945,0.689c2.102-2.283,3.249-4.862,3.234-7.573c-0.025-2.731-1.159-5.679-2.829-8.475c-1.673-2.807-3.809-5.497-6.102-8.092
		c-2.301-2.596-4.774-5.107-7.312-7.585c-5.094-4.943-10.394-9.811-15.62-14.847c-5.218-5.047-10.383-10.269-15.062-16.098
		c-2.331-2.919-4.535-5.998-6.464-9.326c-0.978-1.671-1.835-3.362-2.652-5.224c-0.197-0.463-0.426-0.969-0.569-1.364l-0.244-0.629
		l-0.121-0.315l-0.061-0.157l-0.086-0.244l-0.901-2.725c-2.192-7.296-3.292-14.654-4.001-21.961
		c-1.404-14.631-1.259-29.145-0.972-43.589c0.31-14.444,0.994-28.822,1.438-43.166c0.469-14.34,0.76-28.653,0.174-42.86
		c-1.254-28.723-2.743-57.399-6.193-85.844c-1.759-14.212-4.028-28.355-7.051-42.332c-1.483-7.001-3.205-13.864-5.099-20.844
		c-1.863-6.831-4.112-13.604-6.67-20.235c-5.104-13.284-11.576-26.038-18.999-38.205c-7.414-12.181-15.842-23.743-24.921-34.763
		c-18.21-22.026-39.036-41.829-61.116-60.052c-11.057-9.103-22.388-17.886-33.944-26.391c-5.775-4.258-11.58-8.482-17.416-12.683
		c-5.828-4.208-11.697-8.397-17.482-12.742L336.541,263.672z"/>
</g>
<g>
	<path d="M421.186,430.32c0,0,1.756,1.394,4.828,3.834c1.541,1.201,3.398,2.662,5.554,4.279c2.16,1.607,4.599,3.399,7.324,5.179
		c2.718,1.767,5.736,3.576,8.94,4.916c0.8,0.326,1.618,0.614,2.419,0.834c0.403,0.134,0.8,0.212,1.196,0.302l0.149,0.034
		l0.075,0.017c0.027,0.007-0.117-0.021-0.034-0.006l0.047,0.007l0.37,0.06l0.744,0.117c1.039,0.182,1.901,0.258,2.817,0.381
		c0.948,0.083,1.916,0.169,2.909,0.206c1.979,0.108,4.049,0.088,6.275,0.129c2.221,0.033,4.613,0.173,7.017,0.616
		c2.405,0.446,4.751,1.226,6.979,2.153c1.123,0.464,2.192,0.997,3.261,1.53c0.286,0.148,0.498,0.23,0.846,0.434l0.73,0.409
		l1.471,0.81c2.076,1.249,4.081,2.46,5.993,3.816c0.978,0.653,1.902,1.369,2.857,2.052c0.915,0.725,1.858,1.423,2.738,2.183
		c3.601,2.962,6.866,6.236,9.696,9.69c1.415,1.727,2.715,3.503,3.879,5.317l0.222,0.338l0.292,0.497l0.38,0.646l0.366,0.648
		l0.391,0.781c0.258,0.525,0.514,1.048,0.769,1.567c0.204,0.478,0.408,0.952,0.61,1.424c1.568,3.733,2.728,7.232,3.612,10.536
		c1.761,6.587,2.514,12.248,2.748,16.297c0.252,4.042,0.009,6.458,0.009,6.458c-0.012,0.111-0.111,0.192-0.223,0.182
		c-0.054-0.006-0.102-0.032-0.135-0.07c0,0-1.571-1.847-3.746-5.231c-2.196-3.376-4.961-8.311-7.763-14.316
		c-1.425-2.981-2.808-6.281-4.283-9.592c-0.345-0.761-0.694-1.531-1.048-2.312l-0.25-0.553l-0.351-0.658l-0.341-0.667l-0.086-0.168
		l-0.043-0.083l-0.021-0.042c-0.097-0.169,0.107,0.182,0.078,0.132l-0.177-0.303c-0.936-1.623-1.927-3.271-2.987-4.919
		c-2.104-3.307-4.49-6.624-7.23-9.751c-1.373-1.56-2.826-3.082-4.39-4.498c-1.542-1.448-3.233-2.752-4.883-3.96l-1.389-0.934
		l-0.699-0.46c-0.127-0.091-0.417-0.254-0.618-0.378l-1.332-0.798c-0.451-0.247-0.912-0.454-1.366-0.685
		c-1.825-0.89-3.697-1.562-5.619-1.915c-1.922-0.368-3.903-0.436-5.987-0.409c-2.08,0.032-4.268,0.121-6.471,0.065
		c-1.101-0.008-2.2-0.111-3.301-0.195c-1.125-0.128-2.289-0.255-3.229-0.459l-0.74-0.138l-0.369-0.068l-0.171-0.033l-0.107-0.026
		l-0.215-0.053c-0.572-0.139-1.144-0.276-1.672-0.462c-1.088-0.336-2.075-0.785-3.029-1.234c-3.796-1.826-6.813-4.135-9.472-6.342
		c-1.313-1.125-2.528-2.235-3.662-3.307c-1.121-1.085-2.143-2.152-3.095-3.156c-1.885-2.028-3.447-3.857-4.67-5.417
		c-1.236-1.546-2.147-2.809-2.756-3.678c-0.594-0.881-0.91-1.352-0.91-1.352c-0.059-0.086-0.035-0.203,0.051-0.261
		c0.069-0.047,0.16-0.041,0.223,0.008L421.186,430.32z"/>
</g>
<g>
	<path d="M176.436,44.764c0,0,0.111,1.094,0.321,3.144c0.269,2.04,0.586,5.051,1.419,8.734c0.399,1.835,0.893,3.858,1.696,5.877
		c0.403,1.02,0.871,1.978,1.473,2.941c0.62,1.098,1.282,2.223,1.92,3.392c1.315,2.315,2.607,4.824,4.24,7.203
		c0.816,1.179,1.689,2.36,2.695,3.332c0.506,0.478,1.039,0.905,1.57,1.219c0.538,0.3,1.067,0.479,1.5,0.483
		c0.107-0.007,0.216,0.008,0.316-0.019l0.077-0.01l0.038-0.004c0.12-0.02-0.124,0.024-0.067,0.012l0.305-0.072l0.149-0.036
		l0.043-0.03c0.029-0.018,0.058-0.031,0.089-0.042c0.099-0.055,0.226-0.112,0.342-0.182c0.478-0.298,0.989-0.758,1.473-1.312
		c0.974-1.117,1.853-2.544,2.722-4.057c0.877-1.519,1.744-3.14,2.827-4.792c0.539-0.832,1.141-1.667,1.865-2.501
		c0.725-0.832,1.573-1.681,2.752-2.435c2.242-1.387,5.078-2.054,7.818-1.642c2.758,0.405,5.067,1.727,6.918,3.167
		c1.871,1.46,3.401,3.109,4.795,4.806l0.131,0.159l0.065,0.08l0.199,0.262l0.221,0.312l0.111,0.156l0.057,0.08l0.093,0.155
		l0.358,0.635c0.261,0.468,0.348,0.759,0.503,1.132c0.155,0.362,0.227,0.693,0.337,1.043c0.366,1.372,0.5,2.631,0.547,3.826
		c0.086,2.385-0.095,4.53-0.227,6.633c-0.144,2.1-0.269,4.125-0.277,6.116c-0.028,3.961,0.451,7.778,2.045,11.047
		c0.376,0.829,0.871,1.591,1.375,2.347l0.047,0.072c-0.159-0.214-0.008-0.013-0.027-0.04l0.126,0.162l0.251,0.323
		c0.161,0.2,0.351,0.467,0.488,0.611c0.293,0.285,0.489,0.552,0.84,0.872c1.312,1.277,2.898,2.434,4.612,3.473
		c3.446,2.069,7.348,3.733,11.38,5.07c8.08,2.682,16.646,4.367,25.059,5.436c1.053,0.127,2.096,0.246,3.14,0.345
		c1.075,0.084,2.148,0.168,3.218,0.251c2.125,0.163,4.215,0.29,6.237,0.366c2.021,0.073,3.984,0.054,5.801-0.073
		c1.816-0.139,3.469-0.464,4.752-0.938c0.31-0.129,0.614-0.254,0.874-0.404c0.139-0.068,0.256-0.15,0.382-0.224
		c-0.042,0.03,0.161-0.106-0.083,0.061l0.079-0.056l0.157-0.112l0.314-0.223c0.478-0.329,0.697-0.526,0.989-0.744
		c0.272-0.197,0.662-0.553,0.987-0.82c1.38-1.189,2.761-2.599,4.227-3.977c2.952-2.746,6.017-5.68,10.02-7.853
		c0.498-0.267,1.01-0.52,1.561-0.736c0.522-0.224,1.122-0.464,1.521-0.597c0.851-0.309,1.842-0.645,2.721-0.938
		c1.741-0.577,3.455-1.145,5.142-1.704c3.302-1.126,6.393-2.253,9.138-3.667c1.38-0.693,2.638-1.481,3.835-2.286
		c0.574-0.422,1.16-0.833,1.684-1.285c0.523-0.456,1.031-0.878,1.563-1.46c2.034-2.112,3.9-4.219,5.489-6.266
		c1.589-2.046,2.958-4.046,3.846-5.95c0.437-0.943,0.752-1.87,0.845-2.66c0.094-0.801-0.015-1.384-0.319-1.798l-0.053-0.084
		c0.027,0.024-0.059-0.073-0.082-0.104l-0.219-0.262c-0.114-0.126-0.222-0.255-0.37-0.395c-0.273-0.274-0.568-0.531-0.872-0.765
		c-0.609-0.469-1.248-0.864-1.874-1.191c-1.254-0.654-2.423-1.087-3.377-1.417c-0.96-0.321-1.719-0.519-2.229-0.641
		c-0.509-0.112-0.771-0.169-0.771-0.169l0.068-0.868c0,0,0.286,0.004,0.84,0.013c0.549,0.019,1.361,0.063,2.423,0.193
		c1.063,0.129,2.373,0.355,3.896,0.845c0.763,0.244,1.577,0.563,2.428,1.006c0.424,0.224,0.859,0.476,1.288,0.787
		c0.21,0.145,0.439,0.333,0.67,0.527l0.277,0.245c0.059,0.056,0.057,0.044,0.166,0.156l0.171,0.2
		c0.963,1.073,1.302,2.636,1.233,3.946c-0.054,1.345-0.402,2.584-0.841,3.793c-0.909,2.402-2.228,4.705-3.786,7.02
		c-1.564,2.317-3.354,4.631-5.357,7.01c-0.464,0.554-1.04,1.211-1.61,1.851c-0.573,0.639-1.205,1.223-1.839,1.823
		c-1.299,1.15-2.715,2.21-4.203,3.176c-2.98,1.928-6.233,3.582-9.592,5.025c-1.657,0.7-3.342,1.412-5.053,2.135
		c-0.845,0.36-1.593,0.679-2.475,1.081c-0.478,0.199-0.729,0.353-1.056,0.54c-0.314,0.161-0.631,0.366-0.947,0.587
		c-2.574,1.673-5.105,4.307-7.749,7.206c-1.337,1.455-2.752,2.951-4.382,4.5c-0.443,0.398-0.791,0.749-1.32,1.185
		c-0.505,0.422-1.066,0.888-1.441,1.133l-0.313,0.224l-0.156,0.112l-0.079,0.056l-0.246,0.162c-0.313,0.195-0.628,0.395-0.949,0.561
		c-0.639,0.357-1.288,0.638-1.936,0.899c-2.596,1-5.123,1.31-7.499,1.405c-2.384,0.106-4.664-0.057-6.894-0.274
		c-2.229-0.217-4.405-0.545-6.562-0.867c-2.167-0.332-4.345-0.664-6.532-0.999c-4.398-0.725-8.788-1.579-13.168-2.64
		c-4.379-1.053-8.757-2.259-13.079-3.784c-4.316-1.527-8.619-3.285-12.712-5.768c-2.041-1.248-4.036-2.681-5.86-4.464
		c-0.456-0.42-0.951-1.007-1.411-1.514c-0.229-0.261-0.352-0.444-0.533-0.67l-0.251-0.324l-0.125-0.162l-0.152-0.202l-0.066-0.1
		c-0.713-1.053-1.379-2.142-1.925-3.284c-2.29-4.57-2.889-9.565-2.914-14.084c0-2.271,0.133-4.478,0.268-6.574
		c0.129-2.092,0.271-4.121,0.193-5.876c-0.042-0.872-0.115-1.676-0.274-2.292c-0.047-0.137-0.069-0.316-0.125-0.421
		c-0.043-0.1-0.104-0.302-0.105-0.275c-0.005-0.012-0.004-0.025,0.001-0.043l0.004-0.014l-0.053-0.077l-0.108-0.158l-0.216-0.315
		c-0.047-0.067,0.222,0.296,0.082,0.11l-0.055-0.068l-0.109-0.137c-1.17-1.456-2.398-2.777-3.647-3.805
		c-1.253-1.029-2.514-1.687-3.63-1.873c-0.563-0.096-1.108-0.089-1.682,0.017c-0.277,0.054-0.615,0.153-0.807,0.216
		c-0.522,0.209-0.524,0.197-0.786,0.348c-0.907,0.501-2.123,1.733-3.258,2.983c-1.151,1.283-2.319,2.672-3.521,4.058
		c-1.212,1.386-2.436,2.791-3.909,4.106c-0.743,0.653-1.557,1.296-2.564,1.81c-0.256,0.128-0.517,0.24-0.802,0.354l-0.507,0.161
		l-0.254,0.071l-0.158,0.029l-0.308,0.056c0.005-0.001-0.29,0.049-0.222,0.033l-0.118,0.008l-0.235,0.015
		c-0.314,0.029-0.621-0.001-0.927-0.023c-1.227-0.128-2.245-0.621-3.091-1.148c-0.855-0.528-1.563-1.133-2.2-1.751
		c-1.28-1.23-2.314-2.509-3.25-3.785c-1.848-2.561-3.388-5.044-4.698-7.426c-0.669-1.184-1.252-2.347-1.846-3.452
		c-0.633-1.229-1.08-2.529-1.414-3.718c-0.664-2.407-0.975-4.605-1.162-6.587c-0.293-3.968-0.197-7.044-0.031-9.14
		c0.14-2.093,0.324-3.205,0.324-3.205L176.436,44.764z"/>
</g>
<g>
	<path d="M251.247,112.805c-0.447-1.303-0.86-2.609-1.269-3.909l-1.207-3.892l-2.352-7.707c-0.769-2.55-1.589-5.065-2.414-7.536
		c-0.437-1.225-0.847-2.452-1.31-3.636c-0.466-1.183-0.913-2.359-1.428-3.459c-0.512-1.097-1.026-2.171-1.584-3.086l-1.011-1.667
		l-1.027-1.744c-1.351-2.33-2.622-4.736-3.896-7.06c-1.272-2.347-2.462-4.726-3.745-7.092c-1.273-2.368-2.555-4.738-3.888-7.059
		l0.206,0.295l-9.497-12.985l-4.639-6.375c-1.55-1.99-3.3-3.94-5.134-5.733c-1.847-1.786-3.782-3.489-5.893-4.865
		c-1.053-0.688-2.145-1.298-3.274-1.775c-0.548-0.238-1.171-0.452-1.68-0.603c-0.644-0.128-1.337-0.314-1.94-0.394
		c-1.211-0.208-2.526-0.335-3.819-0.379c-1.299-0.049-2.609-0.021-3.92,0.066c-1.312,0.076-2.624,0.232-3.931,0.435
		c-1.302,0.207-2.618,0.462-3.878,0.8l-0.285-0.823c1.286-0.499,2.574-0.895,3.891-1.253c1.315-0.353,2.646-0.659,3.997-0.885
		c1.348-0.243,2.716-0.397,4.096-0.483c1.387-0.085,2.755-0.094,4.205,0.011c0.733,0.034,1.352,0.142,2.033,0.209
		c0.804,0.116,1.479,0.243,2.198,0.442c1.409,0.387,2.751,0.922,4.038,1.54c2.571,1.244,4.935,2.789,7.15,4.493
		c2.221,1.713,4.296,3.535,6.299,5.558l0.194,0.201l0.099,0.104l0.153,0.185l0.323,0.385l0.647,0.77l1.291,1.542l2.566,3.097
		l10.267,12.385l0.052,0.068l0.155,0.227l4.599,6.727l2.307,3.377c0.761,1.135,1.546,2.257,2.287,3.406
		c0.747,1.145,1.518,2.285,2.189,3.446c0.698,1.155,1.393,2.312,2.056,3.486l0.988,1.767l0.997,1.847
		c0.748,1.448,1.3,2.859,1.774,4.272c0.95,2.815,1.572,5.585,2.061,8.355c0.488,2.765,0.8,5.528,1.016,8.283
		c0.201,2.759,0.297,5.512,0.265,8.268c-0.035,1.38-0.046,2.753-0.14,4.132c-0.082,1.378-0.186,2.753-0.372,4.135L251.247,112.805z"
		/>
</g>
<g>
	<path d="M298.235,69.511c0,0-0.381,0.427-1.062,1.281c-0.676,0.852-1.646,2.123-2.768,3.809c-1.113,1.688-2.396,3.787-3.584,6.298
		c-1.184,2.501-2.216,5.483-2.566,8.7c-0.308,3.331-0.192,7.13-0.158,11.164c0.019,4.054,0.111,8.347-0.634,13.039
		c-0.202,1.177-0.47,2.385-0.919,3.64c-0.458,1.243-1.084,2.592-2.307,3.832c-0.61,0.61-1.396,1.165-2.282,1.522
		c-0.885,0.363-1.836,0.516-2.706,0.512c-0.887-0.009-1.648-0.127-2.443-0.348c-0.162-0.051-0.221-0.056-0.468-0.146l-0.628-0.234
		c-0.362-0.158-0.722-0.323-1.065-0.518c-1.386-0.764-2.541-1.821-3.449-2.951c-0.916-1.134-1.613-2.341-2.185-3.554
		c-1.14-2.432-1.802-4.897-2.311-7.334c-0.981-4.88-1.293-9.697-1.477-14.379c-0.062-2.317-0.123-4.616-0.184-6.888
		c-0.028-1.117-0.061-2.219-0.124-3.256c-0.032-0.811-0.108-1.059-0.098-1.877c0.002-0.347,0-0.742,0.015-1.051l0.046-0.912
		c0.145-2.397,0.468-4.592,0.771-6.753c0.318-2.14,0.629-4.234,0.932-6.273c0.597-4.064,1.409-7.835,2.52-11.205
		c2.234-6.737,4.836-12.102,6.91-15.768c2.085-3.664,3.638-5.633,3.638-5.634l0.83,0.264c0,0,0.038,0.625,0.035,1.771
		c-0.004,1.147-0.055,2.814-0.201,4.906c-0.307,4.179-1.067,10.037-2.585,16.846c-0.765,3.403-1.914,6.99-3.233,10.748
		c-1.275,3.739-2.506,7.823-3.217,11.807l-0.12,0.73l-0.084,0.603c-0.061,0.286-0.088,1.152-0.058,1.454
		c0.059,1.191,0.079,2.335,0.096,3.479c0.035,2.248,0.071,4.524,0.107,6.818c0.124,4.529,0.39,9.102,1.214,13.426
		c0.418,2.149,0.984,4.242,1.807,6.052c0.816,1.809,1.914,3.284,3.178,3.984c0.157,0.095,0.321,0.168,0.483,0.247l0.178,0.073
		c0.019,0.021,0.242,0.078,0.353,0.116c0.307,0.097,0.68,0.194,0.937,0.213c0.546,0.031,0.778-0.021,1.205-0.345
		c0.413-0.333,0.875-1.016,1.229-1.839c0.362-0.824,0.651-1.768,0.884-2.743c0.911-3.95,1.141-8.196,1.42-12.179
		c0.268-4.011,0.421-7.844,1.029-11.489c0.082-0.462,0.165-0.898,0.278-1.381c0.096-0.44,0.231-0.886,0.374-1.304
		c0.139-0.423,0.277-0.841,0.413-1.254c0.162-0.399,0.322-0.794,0.48-1.184c0.642-1.552,1.385-2.942,2.125-4.212
		c1.499-2.529,3.033-4.555,4.36-6.157c1.328-1.603,2.448-2.787,3.226-3.58c0.777-0.79,1.222-1.194,1.222-1.194L298.235,69.511z"/>
</g>
<g>
	<path d="M316.079,187.567c0,0-0.551,0.702-1.426,2.003c-0.875,1.286-2.102,3.161-3.249,5.449c-0.563,1.14-1.087,2.409-1.411,3.662
		c-0.263,1.219-0.771,3.184-1.311,4.782c-0.565,1.654-1.18,3.303-1.766,4.949c-0.6,1.638-1.117,3.301-1.481,4.955
		c-0.377,1.651-0.652,3.25-1.061,4.714l-0.078,0.275l-0.011,0.034c-0.03,0.127,0.035-0.155,0.026-0.118l-0.005,0.02l-0.019,0.081
		l-0.039,0.16c-0.05,0.209-0.112,0.463-0.115,0.523c-0.044,0.166-0.106,0.512-0.158,0.836c-0.107,0.666-0.185,1.389-0.264,2.121
		c-0.117,1.477-0.207,2.997-0.259,4.467c-0.055,1.499-0.106,2.915-0.155,4.223c-0.093,2.658-0.252,4.949-0.384,6.566
		c-0.14,1.62-0.285,2.575-0.286,2.575l-0.843,0.219c0,0-0.597-0.779-1.428-2.217c-0.82-1.44-1.913-3.531-2.891-6.174
		c-0.489-1.322-0.963-2.779-1.362-4.368s-0.743-3.309-0.913-5.191c-0.089-0.948-0.133-1.933-0.096-2.99
		c0.036-0.535,0.061-1.055,0.169-1.75c0.055-0.373,0.094-0.545,0.135-0.765l0.031-0.162l0.067-0.305l0.095-0.362
		c0.485-1.948,1.389-3.74,2.344-5.414c1.845-3.156,3.69-6.313,5.421-9.272c0.409-0.696,0.817-1.405,1.155-2.027
		c0.176-0.3,0.354-0.678,0.53-1.033c0.198-0.389,0.394-0.772,0.587-1.151c0.857-1.593,1.871-2.816,2.821-3.892
		c0.956-1.068,1.874-1.97,2.731-2.716c0.854-0.748,1.598-1.382,2.247-1.865c1.28-0.976,2.055-1.481,2.055-1.481L316.079,187.567z"/>
</g>
<g>
	<path d="M261.773,223.445c0,0-0.289-1.716-0.794-4.719c-0.49-3.007-1.143-7.306-1.783-12.507c-0.142-1.305-0.29-2.665-0.442-4.072
		c-0.121-1.394-0.246-2.835-0.375-4.317c-0.074-0.746-0.149-1.519-0.291-2.138c-0.099-0.644-0.272-1.347-0.448-2.057
		c-0.354-1.414-0.834-2.847-1.381-4.288c-1.114-2.881-2.561-5.776-4.146-8.663c-1.598-2.883-3.415-5.726-5.332-8.495
		c-0.475-0.695-0.983-1.369-1.472-2.053l-1.552-1.977c-1.075-1.411-2.157-2.543-3.219-3.78c-2.229-2.442-4.481-4.859-6.613-7.286
		c-2.106-2.438-4.095-4.918-5.875-7.402c-0.453-0.604-0.891-1.241-1.309-1.866c-0.435-0.644-0.862-1.278-1.283-1.901
		c-0.369-0.625-0.7-1.151-1.079-1.831c-0.371-0.652-0.738-1.308-1.029-1.916c-1.244-2.453-2.158-4.752-2.893-6.81
		c-0.742-2.053-1.252-3.886-1.646-5.4c-0.393-1.514-0.642-2.722-0.792-3.553c-0.151-0.829-0.208-1.283-0.208-1.283l0.8-0.345
		c0,0,0.28,0.346,0.806,0.994c0.522,0.649,1.275,1.604,2.207,2.82c0.924,1.205,2.047,2.667,3.334,4.344
		c1.272,1.661,2.707,3.515,4.277,5.436c0.396,0.497,0.792,0.927,1.18,1.395c0.37,0.447,0.892,1.006,1.34,1.519
		c0.913,0.974,1.857,1.98,2.828,3.015c2.014,2.113,4.135,4.387,6.247,6.896c2.096,2.511,4.146,5.256,6.138,8.178
		c0.979,1.498,2.071,3.036,2.923,4.494l0.679,1.106l0.739,1.171c0.449,0.772,0.914,1.533,1.349,2.314
		c3.549,6.187,6.679,12.683,8.471,19.301c0.441,1.655,0.811,3.309,1.05,4.967c0.249,1.583,0.387,3.515,0.328,4.899l-0.007,0.633
		l-0.018,0.544c-0.012,0.361-0.024,0.72-0.036,1.076c-0.022,0.714-0.044,1.417-0.066,2.107c-0.011,1.393-0.021,2.739-0.031,4.03
		c0.019,2.59,0.018,4.971,0.061,7.083c0.04,2.113,0.075,3.955,0.104,5.472c0.078,3.036,0.123,4.771,0.123,4.771L261.773,223.445z"/>
</g>
<g>
	<path d="M250.01,222.53c-0.285-2.069-0.569-4.138-0.813-6.207c-0.266-2.069-0.482-4.138-0.718-6.207
		c-0.243-2.069-0.434-4.138-0.646-6.207c-0.222-2.069-0.4-4.138-0.563-6.207l0.072,0.669c-0.554-1.818-1.095-3.639-1.674-5.451
		l-0.936-2.704c-0.312-0.901-0.651-1.797-0.938-2.704c-0.293-0.905-0.566-1.815-0.779-2.738s-0.379-1.855-0.513-2.795
		c-0.236-1.886-0.387-3.791-0.413-5.723l0.105,0.384c-0.2-1.627-0.328-3.279-0.352-4.964c-0.018-0.841,0.016-1.699,0.061-2.561
		c0.008-0.426,0.069-0.87,0.105-1.305c0.038-0.436,0.105-0.882,0.184-1.332l0.826-0.275c0.333,0.313,0.655,0.629,0.947,0.955
		c0.289,0.327,0.604,0.645,0.867,0.981c0.553,0.663,1.095,1.329,1.585,2.013c0.992,1.363,1.881,2.761,2.697,4.183l0.105,0.384
		c0.772,1.771,1.419,3.568,1.982,5.384c0.265,0.912,0.498,1.83,0.685,2.758c0.186,0.929,0.313,1.87,0.419,2.816
		c0.111,0.944,0.171,1.9,0.26,2.85l0.262,2.85c0.219,1.89,0.477,3.772,0.721,5.656l0.068,0.52c0.006,0.049,0.007,0.102,0.004,0.15
		c-0.162,2.069-0.341,4.138-0.563,6.207c-0.212,2.069-0.403,4.138-0.646,6.207c-0.236,2.069-0.452,4.138-0.718,6.207
		c-0.244,2.069-0.528,4.138-0.813,6.207H250.01z"/>
</g>
<g>
	<path d="M230.61,164.917c1.341,3.381,2.642,6.773,3.928,10.17c1.255,3.404,2.551,6.798,3.77,10.213l0.044,0.186
		c0.664,2.376,1.372,4.744,1.999,7.127l1.915,7.144l0.494,1.783l0.268,0.887l0.134,0.444l0.067,0.222l0.033,0.111l0.031,0.159
		l0.007,0.028l0.014,0.056l0.917,3.589c0.317,1.195,0.583,2.397,0.846,3.601c0.252,1.205,0.458,2.417,0.624,3.636l-0.155-0.657
		c0.275,0.924,0.503,1.864,0.72,2.806c0.198,0.949,0.414,1.892,0.578,2.851c0.36,1.909,0.634,3.845,0.826,5.807l0.123,0.572
		c0.079,3.327,0.116,6.659,0.075,10.001c-0.042,1.673-0.057,3.343-0.123,5.019c-0.064,1.676-0.138,3.353-0.276,5.038l-0.865,0.102
		c-0.525-1.606-0.986-3.221-1.437-4.836c-0.454-1.615-0.854-3.236-1.284-4.854c-0.815-3.241-1.552-6.491-2.247-9.746l0.123,0.571
		c-0.969-1.716-1.857-3.458-2.659-5.228c-0.417-0.88-0.782-1.776-1.165-2.666c-0.363-0.896-0.716-1.796-1.022-2.711
		c-0.051-0.152-0.091-0.306-0.12-0.46l-0.035-0.197c-0.218-1.21-0.396-2.427-0.527-3.651c-0.121-1.226-0.238-2.452-0.305-3.686
		l-0.234-3.698l-0.004-0.058l-0.002-0.029l-0.001-0.015c-0.021-0.119,0.028,0.155,0.022,0.124l0-0.007l-0.01-0.116l-0.021-0.231
		l-0.042-0.461l-0.083-0.923l-0.208-1.838l-0.889-7.342c-0.307-2.445-0.534-4.906-0.804-7.358l0.043,0.186
		c-0.717-3.554-1.358-7.13-2.039-10.694c-0.651-3.573-1.286-7.15-1.881-10.738L230.61,164.917z"/>
</g>
<g>
	<path d="M269.188,179.843c0,0,3.783-0.41,9.452-0.868c1.417-0.109,2.953-0.228,4.577-0.354l0.613-0.047l0.155-0.012l0.039-0.003
		l0.02-0.001c0.036,0-0.248-0.001-0.118-0.002l0.077-0.011l0.283-0.043c0.396-0.063,0.798-0.126,1.204-0.191
		c0.816-0.14,1.65-0.29,2.494-0.462c1.689-0.337,3.418-0.75,5.155-1.173c1.734-0.436,3.469-0.937,5.153-1.51
		c0.835-0.308,1.668-0.598,2.458-0.97l0.299-0.131l0.037-0.016l0.019-0.008c-0.042,0.013,0.12-0.042-0.09,0.028l0.08-0.039
		l0.159-0.077c0.196-0.1,0.458-0.212,0.6-0.304l0.841-0.563c1.256-0.857,2.516-1.9,3.809-2.828c1.297-0.939,2.619-1.833,3.928-2.657
		c1.296-0.839,2.557-1.632,3.757-2.347c1.191-0.724,2.328-1.365,3.358-1.922c1.021-0.566,1.969-1.018,2.75-1.396
		c0.784-0.375,1.424-0.656,1.872-0.838c0.445-0.185,0.694-0.273,0.694-0.273l0.65,0.579c0,0-0.063,0.264-0.217,0.729
		c-0.148,0.468-0.391,1.138-0.746,1.955c-0.357,0.814-0.805,1.799-1.411,2.853c-0.598,1.063-1.321,2.227-2.2,3.427
		c-0.871,1.208-1.893,2.458-3.077,3.702c-1.174,1.257-2.527,2.49-4.113,3.596c-1.6,1.094-3.413,2.05-5.507,2.796l-0.805,0.281
		l-0.908,0.283c-0.291,0.084-0.476,0.113-0.719,0.174l-0.173,0.04l-0.086,0.02c-0.224,0.074-0.075,0.023-0.131,0.041l-0.023,0.004
		l-0.047,0.009l-0.375,0.071c-1.001,0.189-1.987,0.393-2.977,0.556c-3.946,0.667-7.846,1.019-11.503,1.018
		c-0.913,0.009-1.812-0.002-2.691-0.021c-0.443-0.015-0.881-0.03-1.314-0.044l-0.337-0.017l-0.078-0.005l-0.157-0.001l-0.019-0.003
		l-0.039-0.005l-0.154-0.021l-0.609-0.083c-1.614-0.221-3.14-0.429-4.548-0.622c-5.633-0.791-9.385-1.422-9.385-1.422
		L269.188,179.843z"/>
</g>
<g>
	<path d="M246.845,252.922c-2.036,4.945-4.208,9.831-6.518,14.66c-2.297,4.838-4.721,9.622-7.399,14.314
		c-1.342,2.347-2.728,4.678-4.29,6.967c-0.396,0.569-0.778,1.15-1.187,1.71l-1.19,1.605l-2.39,3.209
		c-3.209,4.298-6.498,8.51-9.859,12.687c-3.403,4.149-6.828,8.265-10.517,12.303l-1.397,1.512l-1.489,1.48l-1.653,1.491
		l-1.594,1.348c-2.129,1.755-4.271,3.403-6.405,5.032c-4.25,3.259-8.55,6.35-12.565,9.574c-2.01,1.597-3.954,3.25-5.577,4.945
		l-1.43,1.45c-0.473,0.477-1.024,0.99-1.533,1.481c-1.032,0.963-2.021,1.881-3.049,2.765c-4.067,3.563-8.183,6.84-11.986,10.366
		c-3.79,3.52-7.332,7.213-9.671,11.506c-2.529,4.464-4.201,9.234-5.359,14.246c-0.598,2.507-1.036,5.096-1.523,7.737
		c-0.25,1.331-0.492,2.638-0.793,4.017c-0.268,1.255-0.631,2.731-0.98,4.044c-1.437,5.38-3.48,10.665-6.382,15.609
		c-1.45,2.469-3.12,4.847-5.042,7.057l-0.736,0.817l-0.369,0.409l-0.092,0.102l-0.046,0.051l-0.121,0.121l-0.176,0.178l-1.404,1.422
		c-0.474,0.475-0.921,0.948-1.418,1.423l-1.572,1.428l-1.578,1.427l-1.568,1.332c-1.045,0.891-2.087,1.783-3.174,2.606
		c-2.142,1.7-4.335,3.306-6.55,4.908c-4.41,3.047-8.782,6.045-13.229,8.992l-0.151,0.1c-0.032,0.021-0.068,0.043-0.101,0.063
		c-1.149,0.644-2.105,1.109-3.171,1.607c-1.044,0.483-2.101,0.935-3.179,1.354c-2.157,0.828-4.4,1.519-6.767,2.003
		c-2.375,0.458-4.89,0.746-7.609,0.385c-1.352-0.178-2.749-0.517-4.113-1.104c-0.681-0.312-1.346-0.659-1.98-1.087
		c-0.325-0.193-0.614-0.451-0.917-0.681l-0.224-0.178l-0.111-0.09l-0.117-0.101l-0.017-0.019l-0.035-0.035l-0.29-0.299l-0.486-0.529
		l-0.386-0.488c-0.243-0.33-0.471-0.67-0.67-1.022c-0.404-0.703-0.715-1.44-0.939-2.175c-0.44-1.479-0.504-2.917-0.43-4.238
		c0.172-2.65,0.91-4.939,1.852-7.044c0.916-2.113,2.067-4.039,3.318-5.862c0.612-0.918,1.305-1.782,1.986-2.639
		c0.691-0.854,1.419-1.667,2.204-2.452l0.725,0.483c-0.376,0.994-0.731,2.01-1.083,3.006c-0.359,0.995-0.656,2.011-0.979,3
		c-0.615,1.992-1.123,3.99-1.48,5.932c-0.174,0.972-0.267,1.938-0.331,2.859c-0.06,0.92-0.05,1.813,0.07,2.61
		c0.112,0.799,0.34,1.497,0.626,2.017c0.135,0.265,0.288,0.49,0.455,0.682c0.082,0.098,0.172,0.184,0.262,0.268l0.135,0.114
		c0.027,0.011,0.051,0.023,0.07,0.04l0.302,0.234l0.039,0.031l0.02,0.015c0.085,0.074-0.105-0.091-0.084-0.073l0.006,0.004
		l0.048,0.029l0.095,0.061c0.132,0.075,0.235,0.184,0.379,0.242c0.26,0.15,0.548,0.269,0.841,0.385
		c0.607,0.207,1.302,0.336,2.06,0.385c1.515,0.101,3.275-0.146,5.043-0.571c1.778-0.448,3.585-1.086,5.362-1.86
		c0.891-0.38,1.776-0.792,2.646-1.23c0.846-0.425,1.78-0.931,2.471-1.35l-0.252,0.162c4.315-3.111,8.688-6.195,13.054-9.185
		c2.132-1.475,4.27-2.972,6.332-4.542c1.042-0.777,2.085-1.543,3.102-2.337l1.539-1.178l1.447-1.183l1.452-1.182l1.496-1.309
		l1.5-1.321l0.188-0.165c0.083-0.08-0.061,0.062-0.032,0.033l0.04-0.04l0.08-0.079l0.319-0.316l0.639-0.631
		c1.676-1.718,3.201-3.629,4.575-5.675c2.749-4.095,4.883-8.716,6.481-13.539c0.416-1.238,0.739-2.336,1.082-3.673
		c0.319-1.21,0.622-2.51,0.918-3.786c0.591-2.574,1.178-5.213,1.844-7.881c1.337-5.343,3.395-10.642,5.962-15.539
		c1.3-2.532,2.934-4.968,4.631-7.182c1.738-2.199,3.555-4.287,5.435-6.286c3.763-3.976,7.712-7.67,11.519-11.279
		c0.943-0.906,1.901-1.806,2.788-2.689c0.437-0.446,0.855-0.846,1.308-1.327l1.341-1.427c2.035-2.179,4.146-4.002,6.277-5.75
		c4.276-3.467,8.658-6.561,12.982-9.619c2.151-1.534,4.282-3.068,6.315-4.636l1.496-1.183l1.356-1.137l1.388-1.291l1.361-1.378
		c3.625-3.706,7.158-7.663,10.646-11.635l10.433-12l2.594-3.034l1.296-1.521l1.224-1.475c1.629-1.977,3.168-4.102,4.67-6.257
		c1.495-2.163,2.962-4.361,4.38-6.597c1.449-2.217,2.859-4.466,4.257-6.725c2.774-4.531,5.519-9.098,8.203-13.702L246.845,252.922z"
		/>
</g>
<g>
	<path d="M259.591,243.846c0,0,0.267,2.525,0.621,6.953c0.361,4.429,0.78,10.761,0.93,18.403c0.064,3.824,0.068,7.971-0.222,12.404
		c-0.157,2.22-0.38,4.506-0.869,6.907c-0.154,0.68-0.219,1.113-0.401,1.777c-0.16,0.632-0.335,1.238-0.531,1.827
		c-0.399,1.185-0.847,2.369-1.38,3.518c-2.111,4.615-5.114,8.887-8.487,12.778c-3.341,3.916-7.102,7.516-10.427,11.119
		c-2.71,2.769-4.1,7.241-5.277,11.901c-1.18,4.676-2.113,9.611-3.716,14.448c-0.401,1.209-0.834,2.414-1.333,3.605
		c-0.502,1.208-1.004,2.334-1.681,3.554c-0.229,0.453-0.642,1.119-1.012,1.717c-0.375,0.583-0.702,1.075-1.076,1.591
		c-0.738,0.985-1.481,1.921-2.228,2.81c-3.046,3.497-6.169,6.342-9.139,8.859c-2.978,2.499-5.814,4.624-8.391,6.417
		c-1.271,0.916-2.499,1.725-3.644,2.458c-1.139,0.74-2.188,1.412-3.166,1.98c-3.865,2.331-6.248,3.417-6.248,3.417l-0.544-0.681
		c0,0,1.578-2.07,4.474-5.47c0.711-0.864,1.526-1.787,2.404-2.797c0.873-1.017,1.817-2.112,2.847-3.252
		c2.024-2.289,4.309-4.872,6.8-7.689c2.453-2.798,5.131-5.808,7.655-9.004c0.644-0.786,1.26-1.587,1.851-2.396
		c0.266-0.398,0.601-0.815,0.844-1.176c0.234-0.356,0.457-0.634,0.769-1.188c0.951-1.612,1.832-3.59,2.59-5.634
		c1.544-4.131,2.733-8.797,4.214-13.726c0.755-2.464,1.594-5.006,2.78-7.578c0.595-1.283,1.281-2.573,2.121-3.83
		c0.796-1.22,1.97-2.612,2.964-3.514c3.894-3.497,7.688-6.664,11.116-10.077c3.401-3.403,6.511-6.932,8.717-10.793
		c0.563-0.958,1.044-1.941,1.488-2.929c0.217-0.502,0.428-0.99,0.604-1.462c0.182-0.432,0.39-1.117,0.53-1.54
		c0.566-2.047,0.936-4.203,1.227-6.31c0.568-4.23,0.846-8.315,1.039-12.085c0.365-7.55,0.365-13.878,0.383-18.303
		c-0.002-4.427-0.067-6.956-0.067-6.956L259.591,243.846z"/>
</g>
<g>
	<path d="M294.003,254.328c0,0,0.516,6.091,1.128,15.228c0.301,4.568,0.649,9.898,0.966,15.608c0.042,0.713,0.083,1.434,0.125,2.158
		l0.032,0.545l0.016,0.273c0.002,0.091,0-0.086,0.001-0.056l0.003,0.034l0.007,0.062l0.013,0.122l0.119,1.05
		c0.167,1.416,0.344,2.858,0.562,4.302c0.435,2.888,0.965,5.802,1.68,8.631c0.708,2.825,1.662,5.567,2.785,7.998
		c0.55,1.217,1.152,2.346,1.732,3.352c0.298,0.499,0.61,0.948,0.897,1.37c0.405,0.544,0.809,1.084,1.208,1.621
		c1.666,2.142,3.276,4.213,4.803,6.176c1.597,2.037,3.105,3.962,4.498,5.739c1.386,1.807,2.651,3.481,3.754,4.993
		c1.105,1.508,2.034,2.867,2.811,3.977c0.757,1.132,1.358,2.017,1.744,2.647c0.389,0.627,0.596,0.962,0.596,0.962l-0.588,0.643
		c0,0-0.361-0.172-1.012-0.523c-0.659-0.341-1.589-0.884-2.768-1.584c-1.158-0.722-2.573-1.593-4.129-2.672
		c-1.564-1.069-3.278-2.337-5.117-3.765c-1.814-1.456-3.771-3.051-5.736-4.881c-1.979-1.847-3.987-3.767-6.023-6.22l-0.669-0.842
		l-0.335-0.424l-0.165-0.215l-0.141-0.187l-0.099-0.144c-0.551-0.762-1.013-1.552-1.42-2.342c-0.831-1.573-1.399-3.187-1.869-4.788
		c-0.901-3.215-1.375-6.415-1.797-9.571c-0.408-3.157-0.676-6.287-0.807-9.367c-0.064-1.54-0.113-3.064-0.104-4.582l0.017-1.145
		l0.007-0.384l0.017-0.273l0.034-0.544c0.045-0.725,0.09-1.444,0.134-2.158c0.341-5.709,0.712-11.037,1.032-15.604
		c0.65-9.134,1.192-15.223,1.192-15.223L294.003,254.328z"/>
</g>
<g>
	<path d="M347.354,336.857c-0.001,0,0.584,1.277,1.597,3.672c1.024,2.392,2.477,5.902,4.286,10.321
		c1.823,4.401,3.968,9.776,6.713,15.539c1.373,2.844,2.943,5.866,4.758,8.322c0.447,0.601,0.914,1.15,1.353,1.567
		c0.108,0.098,0.217,0.21,0.318,0.286l0.354,0.286c0.38,0.304,0.763,0.609,1.147,0.917c0.403,0.337,0.719,0.537,1.07,0.796
		c0.353,0.247,0.673,0.498,1.053,0.75c0.767,0.497,1.515,1.032,2.323,1.511c6.369,3.958,14.195,7.027,22.984,9.689
		c0.964,0.299,2.271,0.74,3.274,1.031c1.086,0.328,2.178,0.657,3.277,0.989c2.239,0.632,4.531,1.21,6.863,1.726
		c4.658,1.004,9.522,1.696,14.332,1.733c0.604,0.013,1.201,0.008,1.794-0.009c0.599-0.005,1.195-0.02,1.775-0.075
		c0.589-0.04,1.179-0.075,1.741-0.161l0.862-0.105l0.94-0.197c2.451-0.53,4.943-1.172,7.369-1.945
		c2.43-0.775,4.821-1.687,7.076-2.823c2.25-1.127,4.373-2.499,6.044-4.178c1.691-1.664,2.757-3.692,2.851-5.814
		c0.03-0.265,0.012-0.535-0.003-0.805l-0.009-0.203l-0.003-0.101c-0.001-0.051,0.012,0.099-0.004-0.025
		c-0.027-0.151-0.054-0.374-0.082-0.466l-0.074-0.26l-0.121-0.354c-0.101-0.241-0.199-0.484-0.33-0.731
		c-0.506-0.989-1.229-1.999-2.055-2.951c-1.678-1.896-3.658-3.674-5.756-5.32c-2.087-1.667-4.3-3.218-6.537-4.747
		c-4.485-3.048-9.127-5.932-13.698-8.967c-2.277-1.531-4.561-3.067-6.818-4.683c-2.26-1.622-4.503-3.276-6.713-5.213
		c-1.105-0.986-2.204-2.012-3.297-3.406c-0.859-1.124-1.669-2.21-2.428-3.043c-1.578-1.813-3.399-3.683-5.246-5.437
		c-3.713-3.553-7.672-6.877-11.531-10.365c-1.946-1.746-3.869-3.499-5.784-5.563c-0.857-0.984-1.71-1.964-2.559-2.939
		c-0.707-0.775-1.536-1.668-2.354-2.511c-1.641-1.704-3.372-3.342-5.086-4.944c-1.711-1.611-3.438-3.169-5.172-4.664
		c-3.477-2.976-6.923-5.789-10.385-8.142c-0.861-0.595-1.729-1.128-2.582-1.66c-0.428-0.246-0.854-0.49-1.279-0.733l-0.159-0.092
		l-0.079-0.045c0.003-0.001-0.12-0.063-0.013-0.013l-0.357-0.187l-0.714-0.374c-0.974-0.543-1.789-0.93-2.661-1.379
		c-0.912-0.423-1.803-0.865-2.726-1.262c-3.762-1.61-7.367-3.153-10.796-4.62c-3.476-1.539-6.789-3.105-9.755-4.891
		c-2.998-1.748-5.503-3.827-7.886-5.636c-2.295-1.91-4.143-3.912-5.677-5.808c-3.065-3.799-4.99-7.099-6.254-9.359
		c-1.251-2.271-1.812-3.548-1.812-3.548l0.785-0.376c0,0,0.608,1.21,1.956,3.378c1.356,2.155,3.427,5.303,6.589,8.823
		c1.583,1.75,3.446,3.591,5.682,5.286c0.574,0.436,1.101,0.808,1.75,1.223l0.477,0.307l0.494,0.223
		c0.342,0.154,0.688,0.309,1.035,0.466c1.402,0.604,2.867,1.19,4.407,1.725c6.17,2.186,13.438,3.603,21.532,6.151
		c1.011,0.308,2.034,0.679,3.073,1.029c1.05,0.397,2.2,0.808,3.146,1.215l0.74,0.318l0.371,0.16l0.463,0.232
		c0.527,0.267,1.057,0.535,1.589,0.805c1.029,0.565,2.067,1.136,3.064,1.75c3.991,2.462,7.88,5.189,11.63,8.269
		c1.885,1.527,3.756,3.117,5.618,4.768c1.841,1.68,3.68,3.397,5.492,5.241c0.909,0.931,1.8,1.837,2.752,2.935
		c0.781,0.923,1.566,1.85,2.355,2.782c1.51,1.652,3.312,3.393,5.13,5.149c3.688,3.501,7.522,7.16,11.288,11.104
		c1.894,1.991,3.706,4.025,5.53,6.342c0.973,1.211,1.706,2.322,2.436,3.368c0.528,0.756,1.351,1.637,2.228,2.481
		c1.78,1.705,3.832,3.374,5.923,5.012c2.102,1.636,4.262,3.265,6.446,4.889c4.354,3.274,8.734,6.64,13.03,10.174
		c2.151,1.764,4.269,3.587,6.353,5.478c2.063,1.917,4.124,3.865,5.968,6.153c0.926,1.139,1.82,2.356,2.535,3.808
		c0.182,0.358,0.339,0.747,0.49,1.139l0.201,0.615c0.064,0.228,0.122,0.487,0.176,0.73c0.051,0.239,0.057,0.356,0.087,0.541
		c-0.005-0.04,0.029,0.193,0.029,0.228l0.01,0.153l0.02,0.307c0.028,0.409,0.053,0.818,0.021,1.232
		c-0.053,1.652-0.489,3.297-1.196,4.745c-0.709,1.452-1.646,2.724-2.67,3.843c-2.075,2.225-4.483,3.877-6.919,5.316
		c-2.457,1.403-4.972,2.601-7.519,3.626c-2.551,1.034-5.099,1.923-7.703,2.708l-2.006,0.582c-0.705,0.214-1.4,0.369-2.097,0.501
		c-0.7,0.155-1.392,0.264-2.08,0.359c-0.692,0.115-1.381,0.198-2.063,0.246c-5.477,0.49-10.732,0.217-15.868-0.167
		c-2.563-0.217-5.094-0.506-7.591-0.863c-1.245-0.199-2.482-0.369-3.751-0.629c-1.319-0.265-2.302-0.453-3.61-0.785
		c-4.682-1.193-9.27-2.625-13.639-4.367c-4.361-1.759-8.498-3.868-12.231-6.358c-0.945-0.6-1.841-1.268-2.73-1.917
		c-0.871-0.671-1.865-1.448-2.614-2.093c-0.37-0.324-0.739-0.646-1.105-0.966l-0.274-0.24c-0.198-0.169-0.11-0.099-0.179-0.161
		l-0.096-0.091l-0.19-0.183c-0.262-0.244-0.481-0.486-0.711-0.729c-0.892-0.973-1.591-1.931-2.213-2.87
		c-2.41-3.757-3.747-7.286-4.904-10.619c-2.22-6.661-3.315-12.514-4.044-17.362c-0.707-4.848-0.965-8.688-1.067-11.314
		c-0.107-2.625-0.05-4.041-0.05-4.041L347.354,336.857z"/>
</g>
<g>
	<path d="M470.338,547.665c0,0,1.687,1.66,4.333,4.795c1.318,1.571,2.904,3.496,4.6,5.797c1.704,2.295,3.572,4.931,5.453,7.936
		c1.882,3.008,3.812,6.351,5.542,10.191c0.205,0.5,0.411,1.003,0.618,1.509c0.187,0.478,0.389,0.907,0.566,1.434
		c0.345,1.066,0.747,2.176,1.046,3.256c0.282,1.058,0.584,2.131,0.831,3.217c0.239,1.081,0.458,2.181,0.676,3.285
		c0.776,4.427,1.177,9.008,1.429,13.649c0.226,4.646,0.38,9.344,0.481,14.055c0.109,4.713,0.194,9.432,0.045,14.163l-0.09,1.779
		l-0.044,0.888l-0.022,0.443l-0.006,0.11l-0.02,0.191l-0.019,0.21c-0.103,1.131-0.191,2.225-0.325,3.365
		c-0.159,1.164-0.316,2.322-0.474,3.472c-0.174,1.121-0.383,2.207-0.575,3.299c-0.837,4.331-1.896,8.432-3.062,12.264
		c-1.129,3.844-2.326,7.429-3.491,10.72c-1.16,3.291-2.319,6.276-3.388,8.907c-1.062,2.634-2.079,4.9-2.927,6.763
		c-0.851,1.861-1.561,3.311-2.062,4.293c-0.499,0.983-0.785,1.501-0.785,1.501l-0.836-0.246c0,0,0.051-0.586,0.146-1.684
		c0.103-1.096,0.271-2.697,0.527-4.721c0.258-2.022,0.566-4.479,1.007-7.268c0.426-2.793,0.935-5.933,1.545-9.337
		c0.593-3.406,1.291-7.08,2.04-10.946c0.739-3.871,1.571-7.924,2.508-12.064c0.463-2.028,0.934-4.092,1.41-6.18
		c0.216-1.088,0.434-2.183,0.652-3.283l0.041-0.208l0.011-0.052c0.006-0.035-0.015,0.125-0.002,0.033l0.016-0.1l0.063-0.397
		l0.126-0.799l0.252-1.605c0.604-4.328,0.847-8.854,0.77-13.371c-0.095-4.521-0.499-9.045-1.154-13.445
		c-0.639-4.401-1.432-8.695-2.283-12.771c-0.215-1.014-0.427-2.019-0.637-3.015c-0.225-0.982-0.446-1.955-0.666-2.917
		c-0.227-0.903-0.45-1.796-0.671-2.679c-0.277-0.927-0.551-1.842-0.82-2.745c-1.207-3.532-2.604-6.927-3.919-10.058
		c-1.37-3.143-2.626-6.023-3.739-8.576c-1.132-2.578-2.119-4.826-2.932-6.677c-0.813-1.86-1.445-3.333-1.867-4.345
		c-0.42-1.014-0.644-1.554-0.644-1.554L470.338,547.665z"/>
</g>
<g>
	<path d="M47.395,606.979c0,0-0.024-0.928-0.071-2.667c-0.054-1.74-0.1-4.29-0.139-7.536c-0.05-3.246-0.045-7.186-0.057-11.705
		c0.043-4.518,0.042-9.618,0.167-15.177c0.113-5.56,0.233-11.585,0.498-17.956c0.132-3.188,0.269-6.462,0.407-9.81
		c0.184-3.347,0.383-6.768,0.626-10.255c0.251-3.491,0.496-7.035,0.923-10.691c0.102-0.908,0.235-1.846,0.374-2.789
		c0.058-0.458,0.167-0.978,0.25-1.466c0.071-0.465,0.215-1.055,0.362-1.631l0.054-0.215l0.028-0.107
		c-0.018,0.048,0.055-0.188,0.057-0.191l0.099-0.324c0.072-0.228,0.118-0.407,0.211-0.675c0.198-0.549,0.391-1.125,0.609-1.589
		c0.423-0.983,0.908-1.918,1.421-2.825c2.075-3.619,4.778-6.605,7.628-9.289c2.86-2.684,5.915-5.05,8.998-7.321
		c1.542-1.136,3.089-2.252,4.668-3.316l2.39-1.642c0.793-0.504,1.51-0.997,2.364-1.508c3.3-2.066,6.493-3.863,9.649-5.727
		c6.306-3.663,12.306-7.307,17.902-11.054c2.811-1.852,5.509-3.75,8.113-5.651l0.247-0.175l0.124-0.088l0.062-0.044
		c0.083-0.063-0.043,0.038-0.008,0.01l0.494-0.381l0.984-0.758c0.642-0.503,1.332-1.009,1.927-1.496
		c1.21-0.994,2.398-1.911,3.592-2.935c4.793-4.002,9.27-7.969,13.412-11.624c4.148-3.67,7.951-7.035,11.322-10.018
		c1.692-1.493,3.275-2.89,4.74-4.182c1.476-1.283,2.833-2.461,4.057-3.526c2.455-2.126,4.396-3.789,5.732-4.911
		c1.339-1.12,2.053-1.717,2.053-1.717l0.638,0.593c0,0-8.619,12.196-23.708,28.686c-3.776,4.126-7.978,8.494-12.677,12.961
		c-1.159,1.116-2.458,2.252-3.709,3.4c-0.635,0.586-1.254,1.073-1.89,1.616l-0.952,0.798l-0.478,0.401l-0.577,0.453
		c-2.702,2.156-5.611,4.152-8.6,6.108c-6.027,3.844-12.605,7.119-19.146,10.327c-3.258,1.59-6.543,3.258-9.565,4.986
		c-0.741,0.415-1.559,0.947-2.335,1.416c-0.678,0.426-1.495,0.942-2.221,1.432c-1.471,1.026-2.935,2.063-4.334,3.173
		c-5.574,4.42-10.518,9.719-13.703,15.129c-0.389,0.675-0.749,1.354-1.046,2.034l-0.417,0.927c-0.068,0.154-0.154,0.408-0.23,0.607
		l-0.118,0.317c-0.019,0.051,0.043-0.131,0.011-0.028l-0.015,0.057l-0.029,0.113c-0.078,0.298-0.168,0.578-0.245,1.004
		c-0.076,0.397-0.168,0.755-0.233,1.187c-0.144,0.83-0.285,1.663-0.403,2.526c-0.505,3.424-0.946,6.902-1.335,10.32
		c-0.396,3.421-0.744,6.802-1.08,10.113c-0.349,3.313-0.69,6.555-1.022,9.711c-0.646,6.323-1.258,12.301-1.822,17.818
		c-0.584,5.522-1.12,10.585-1.595,15.071c-0.51,4.487-0.955,8.399-1.321,11.621c-0.378,3.222-0.683,5.753-0.91,7.478
		c-0.217,1.726-0.333,2.646-0.333,2.646L47.395,606.979z"/>
</g>
<g>
	<path d="M105.476,507.731c0,0-0.151,2.89-0.808,7.917c-0.321,2.517-0.818,5.558-1.521,9.042c-0.707,3.487-1.655,7.402-3.205,11.629
		c-0.79,2.111-1.712,4.307-3.046,6.537c-0.35,0.555-0.694,1.116-1.116,1.67l-0.306,0.418l-0.336,0.417
		c-0.196,0.238-0.354,0.452-0.584,0.713c-0.979,1.118-1.913,2.015-2.957,2.931c-2.062,1.805-4.33,3.319-6.546,4.761
		c-2.205,1.444-4.408,2.798-6.152,4.209c-0.875,0.694-1.587,1.425-2.119,2.114c-0.536,0.697-0.864,1.362-1.062,2.104
		c-0.097,0.374-0.178,0.766-0.202,1.202c-0.042,0.4-0.022,0.962,0.006,1.328c0.016,0.238,0.032,0.201,0.036,0.238l0.006,0.052
		l0.033,0.136c0.033,0.177,0.103,0.384,0.168,0.592c0.135,0.421,0.355,0.898,0.597,1.384c0.495,0.979,1.162,2.021,1.905,3.061
		c0.73,1.05,1.549,2.106,2.405,3.159c1.726,2.101,3.583,4.216,5.477,6.339c3.796,4.245,7.708,8.556,11.328,13.105
		c3.584,4.567,7.043,9.313,9.289,14.801c0.551,1.373,1.013,2.794,1.338,4.262c0.158,0.735,0.286,1.479,0.368,2.233l0.054,0.566
		l0.028,0.341l0.012,0.244c0.013,0.326,0.034,0.65,0.06,0.974c0.142,2.819-0.183,5.464-0.515,7.989
		c-0.731,5.053-1.864,9.664-3.054,13.86c-1.188,4.196-2.454,7.972-3.629,11.292c-1.184,3.317-2.285,6.179-3.226,8.52
		c-1.88,4.684-3.086,7.302-3.086,7.302c-0.06,0.132-0.215,0.19-0.346,0.131c-0.124-0.057-0.182-0.199-0.139-0.324
		c0,0,0.944-2.712,2.357-7.528c0.708-2.408,1.523-5.344,2.373-8.726c0.842-3.384,1.727-7.215,2.488-11.413
		c0.764-4.193,1.421-8.768,1.646-13.546c0.127-2.388,0.038-4.825-0.125-7.183c-0.021-0.323-0.045-0.647-0.078-0.972l-0.022-0.243
		c0.004,0.049-0.019-0.104-0.026-0.146l-0.066-0.407c-0.095-0.544-0.228-1.092-0.383-1.641c-0.32-1.099-0.756-2.202-1.281-3.297
		c-2.123-4.396-5.522-8.594-9.254-12.611c-3.747-4.037-7.881-7.939-11.975-12.045c-2.048-2.056-4.103-4.151-6.074-6.42
		c-1.975-2.277-3.92-4.643-5.543-7.688c-0.796-1.557-1.546-3.212-1.833-5.56l-0.027-0.261l-0.025-0.309l-0.004-0.174l-0.012-0.697
		c-0.018-0.459,0.019-0.94,0.054-1.418c0.068-0.953,0.25-1.934,0.518-2.896c0.529-1.938,1.594-3.721,2.783-5.138
		c1.198-1.433,2.548-2.502,3.838-3.404c2.612-1.769,5.113-2.889,7.41-4.007c2.29-1.114,4.406-2.182,6.246-3.411
		c0.905-0.599,1.819-1.294,2.515-1.895c0.193-0.164,0.426-0.402,0.636-0.599l0.161-0.155l0.081-0.077
		c0.059-0.063-0.034,0.044-0.014,0.021l0.031-0.033l0.254-0.271c0.346-0.345,0.666-0.748,0.991-1.139
		c1.272-1.619,2.353-3.464,3.304-5.289c1.891-3.68,3.282-7.333,4.479-10.579c1.184-3.259,2.055-6.171,2.793-8.567
		c0.726-2.4,1.242-4.308,1.591-5.608c0.342-1.303,0.525-1.998,0.525-1.998c0.036-0.14,0.179-0.225,0.32-0.188
		C105.402,507.495,105.482,507.609,105.476,507.731z"/>
</g>
<g>
	<path d="M47.9,726.883c0,0,0.625,4.674,1.984,12.81c0.681,4.065,1.509,9.002,2.637,14.618c0.572,2.805,1.191,5.788,1.953,8.892
		c0.738,3.106,1.62,6.354,2.76,9.567c1.133,3.206,2.681,6.487,4.364,9.853c1.705,3.355,3.57,6.784,5.59,10.25
		c4.057,6.906,8.639,14.087,14.028,20.814c1.352,1.67,2.761,3.302,4.242,4.809c0.752,0.743,1.481,1.456,2.291,2.109l1.306,1.087
		l1.252,0.964c3.418,2.61,7.222,4.806,11.286,6.693c4.061,1.901,8.408,3.559,12.794,5.382l1.648,0.69l0.745,0.312l0.821,0.324
		c0.541,0.208,1.11,0.451,1.627,0.631l1.53,0.518c1.012,0.347,2.146,0.648,3.213,0.976c1.104,0.281,2.194,0.59,3.307,0.852
		c8.871,2.108,18.146,3.349,26.936,3.346c2.167-0.041,4.348-0.092,6.316-0.398l0.747-0.097l0.781-0.136l1.691-0.291
		c1.082-0.211,2.162-0.421,3.237-0.63c4.408-0.899,8.873-1.767,13.305-2.507c4.44-0.702,8.852-1.318,13.212-1.657
		c4.361-0.345,8.657-0.495,12.846-0.457c4.192,0.109,8.27,0.445,12.19,0.969c2.036,0.281,3.762,0.542,5.647,0.884
		c1.856,0.357,3.706,0.671,5.445,1.061c7.027,1.448,13.343,3.135,18.911,4.709c5.566,1.575,10.365,3.109,14.303,4.401
		c3.932,1.317,7.006,2.388,9.088,3.164s3.192,1.19,3.192,1.19l-0.249,0.834c0,0-1.155-0.241-3.321-0.695
		c-2.168-0.438-5.349-1.078-9.397-1.894c-4.041-0.823-8.961-1.752-14.597-2.776c-5.635-1.013-12.005-2.07-18.932-2.99
		c-1.741-0.251-3.474-0.403-5.256-0.608c-0.874-0.109-1.829-0.161-2.755-0.247c-0.467-0.042-0.936-0.085-1.407-0.128l-0.708-0.064
		l-0.177-0.017c-0.006,0-0.112-0.012-0.036-0.002l-0.086-0.003l-0.345-0.014c-3.676-0.191-7.486-0.2-11.402,0.012
		c-3.918,0.194-7.941,0.547-12.047,1.103c-4.103,0.595-8.299,1.25-12.571,2.074c-4.284,0.774-8.631,1.701-13.163,2.521
		c-1.162,0.204-2.328,0.408-3.496,0.614l-1.703,0.262l-0.921,0.13l-0.967,0.095c-2.6,0.29-5.058,0.252-7.531,0.201
		c-4.903-0.228-9.702-0.844-14.47-1.683c-4.764-0.848-9.494-1.892-14.178-3.23c-1.172-0.328-2.337-0.709-3.505-1.062
		c-1.173-0.412-2.307-0.764-3.507-1.229l-1.792-0.686c-0.587-0.229-1.094-0.467-1.644-0.7l-0.81-0.351l-0.871-0.396l-1.582-0.726
		c-4.23-1.926-8.583-3.744-12.87-5.923c-4.289-2.165-8.435-4.729-12.157-7.774l-1.408-1.167l-1.261-1.139
		c-0.918-0.809-1.784-1.692-2.599-2.557c-1.614-1.75-3.063-3.547-4.438-5.358c-5.448-7.266-9.851-14.697-13.781-21.892
		c-1.951-3.604-3.75-7.162-5.367-10.675c-0.807-1.758-1.569-3.504-2.276-5.244c-0.711-1.761-1.373-3.463-1.872-5.253
		c-1.024-3.523-1.722-6.883-2.292-10.09c-0.591-3.203-1.041-6.245-1.453-9.104c-0.798-5.721-1.365-10.713-1.777-14.83
		c-0.807-8.233-1.115-12.95-1.115-12.95L47.9,726.883z"/>
</g>
<g>
	<path d="M519.27,730.144c-0.049,5.268,0.107,10.543,0.39,15.789c0.154,2.622,0.343,5.24,0.625,7.838
		c0.149,1.296,0.298,2.594,0.5,3.873l0.307,1.918l0.381,1.888c0.114,0.634,0.308,1.229,0.456,1.845
		c0.083,0.295,0.151,0.631,0.245,0.893l0.3,0.944c0.396,1.289,0.826,2.421,1.283,3.648c0.914,2.425,1.945,4.82,3.022,7.196
		c1.075,2.377,2.218,4.729,3.38,7.07c1.164,2.333,2.376,4.676,3.612,6.934l0.034,0.07l0.066,0.149
		c1.72,3.897,3.521,7.803,5.394,11.617l1.421,2.844l1.462,2.782l0.766,1.313l0.382,0.655l0.19,0.328l0.047,0.082
		c-0.018-0.028,0.073,0.121-0.033-0.053l0.027,0.042l0.112,0.168c0.293,0.428,0.613,0.955,0.87,1.253
		c0.271,0.346,0.517,0.686,0.857,1.076c2.55,3.037,5.676,5.907,8.848,8.688c1.594,1.395,3.22,2.767,4.867,4.148l2.495,2.104
		l0.273,0.231l0.218,0.175c0.144,0.11,0.316,0.239,0.496,0.362c0.359,0.25,0.758,0.505,1.176,0.759
		c1.688,1.018,3.608,2.014,5.542,3.105c1.94,1.107,3.931,2.258,5.936,3.913c0.993,0.845,2.023,1.819,2.927,3.277
		c0.442,0.732,0.846,1.61,1.058,2.638c0.217,1.017,0.203,2.169-0.046,3.181c-0.116,0.516-0.292,0.979-0.483,1.425l-0.153,0.317
		l-0.079,0.156l-0.039,0.078l-0.101,0.176l-0.203,0.35l-0.102,0.174l-0.173,0.264l-0.38,0.547c-0.253,0.341-0.481,0.608-0.733,0.905
		c-1.016,1.128-2.189,2.036-3.403,2.75c-2.443,1.423-5.012,2.113-7.531,2.458c-2.528,0.329-5.04,0.289-7.545-0.096
		c-1.253-0.195-2.506-0.48-3.761-0.888c-0.313-0.096-0.628-0.218-0.941-0.331c-0.156-0.055-0.314-0.124-0.471-0.188l-0.236-0.098
		l-0.117-0.05l-0.059-0.024l-0.207-0.098c-0.491-0.244-0.949-0.457-1.468-0.729l-1.672-0.954l-1.466-0.904
		c-0.977-0.596-1.871-1.21-2.811-1.815c-3.658-2.446-7.195-4.929-10.705-7.41c-3.518-2.458-7.006-4.933-10.485-7.214
		c-1.728-1.119-3.511-2.234-5.084-3.036c-0.358-0.194-0.858-0.442-1.35-0.67l-1.484-0.718c-1.019-0.498-1.981-0.971-2.937-1.479
		c-1.909-1-3.773-1.969-5.608-2.851c-1.823-0.907-3.627-1.713-5.427-2.336c-0.9-0.313-1.799-0.566-2.698-0.789l-1.349-0.27
		c-0.468-0.063-0.856-0.148-1.393-0.217c-2.135-0.265-4.356-0.548-6.563-0.915c-4.422-0.719-8.993-1.984-13.124-4.12
		c-1.044-0.561-1.979-1.11-3.033-1.783l-0.342-0.225l-0.413-0.296c-0.286-0.2-0.527-0.396-0.757-0.588
		c-0.473-0.386-0.913-0.788-1.33-1.201c-1.662-1.66-3.023-3.453-4.284-5.282c-2.5-3.673-4.535-7.538-6.281-11.541l0.766-0.414
		c2.467,3.511,5.123,6.91,7.973,9.996c1.425,1.536,2.935,2.981,4.515,4.163c0.389,0.301,0.786,0.579,1.184,0.826
		c0.202,0.131,0.398,0.251,0.568,0.337l0.263,0.146l0.359,0.177c0.829,0.374,1.853,0.728,2.781,1.032
		c1.921,0.576,3.854,1.051,5.845,1.337c1.985,0.301,4.017,0.434,6.08,0.558c2.075,0.109,4.152,0.142,6.316,0.166
		c2.42,0.009,4.941,0.447,7.248,1.048c2.331,0.607,4.537,1.405,6.646,2.257c2.099,0.879,4.094,1.827,6.046,2.74l5.845,2.806
		c2.276,1.139,4.122,2.365,5.993,3.61c3.703,2.483,7.197,5.064,10.657,7.663c3.465,2.579,6.869,5.207,10.283,7.687
		c0.849,0.595,1.707,1.236,2.549,1.795l1.251,0.845l1.102,0.705c0.425,0.249,0.934,0.511,1.396,0.766
		c0.05,0.025-0.263-0.125-0.114-0.055l0.034,0.016l0.067,0.03l0.136,0.062c0.092,0.04,0.179,0.085,0.275,0.12
		c0.191,0.074,0.376,0.157,0.576,0.223c0.786,0.283,1.634,0.509,2.505,0.672c3.468,0.645,7.412,0.3,10.063-1.15
		c0.651-0.36,1.206-0.779,1.649-1.238l0.294-0.341c0.027-0.038,0.058-0.075,0.09-0.11c0.02-0.025,0.025-0.019,0.058-0.068
		l0.106-0.172l0.211-0.345c-0.024,0.045,0.094-0.159-0.049,0.089l0.006-0.012l0.012-0.023l0.026-0.045
		c0.019-0.051,0.044-0.089,0.043-0.101c0.013-0.033,0.014,0.015,0.016-0.023c0.002-0.03-0.031-0.154-0.14-0.346
		c-0.217-0.39-0.722-0.97-1.362-1.521c-1.296-1.125-3.016-2.208-4.798-3.259c-1.798-1.064-3.689-2.084-5.672-3.324
		c-0.498-0.313-1.003-0.645-1.523-1.018c-0.262-0.187-0.52-0.382-0.799-0.604l-0.405-0.338l-0.337-0.299l-2.387-2.133
		c-1.613-1.435-3.239-2.89-4.847-4.379c-3.212-2.996-6.393-6.048-9.29-9.698c-0.355-0.432-0.736-0.97-1.105-1.49
		c-0.408-0.551-0.63-0.959-0.932-1.428l-0.107-0.172l-0.026-0.043c-0.125-0.202-0.049-0.083-0.083-0.141l-0.05-0.096l-0.197-0.381
		l-0.395-0.761l-0.786-1.522l-1.396-3.016c-0.45-1.003-0.866-2.013-1.298-3.02c-1.682-4.036-3.248-8.065-4.761-12.156l0.101,0.22
		c-1.172-2.441-2.26-4.852-3.325-7.304c-1.063-2.445-2.06-4.922-3.016-7.418c-0.951-2.498-1.856-5.017-2.648-7.59
		c-0.389-1.271-0.806-2.643-1.106-3.899l-0.241-0.961c-0.103-0.368-0.143-0.686-0.217-1.031c-0.121-0.676-0.29-1.354-0.368-2.026
		l-0.277-2.018l-0.194-2.01c-0.126-1.339-0.194-2.674-0.264-4.008c-0.122-2.667-0.146-5.325-0.137-7.98
		c0.021-2.654,0.114-5.305,0.235-7.951c0.13-2.646,0.291-5.287,0.509-7.929L519.27,730.144z"/>
</g>
<path d="M451.255,628.052c-7.46-44.505-33.291-68.084-73.236-86.577c-10.161-4.705-19.207-7.938-30.033-10.826
	c-10.319-2.755-9.109-3.81-9.109-14.231c0-24.35,0-48.699,0-73.05c17.989,8.997,32.748,17.94,47.01,32.202
	c6.67,6.67,12.315,14.656,18.337,21.909c6.232,7.513,14.865,4.693,24.382,4.693c-5.439-31.411-16.317-94.235-16.317-94.235
	l-17.141-6.071c0,0-17.029,19.723-34.665,19.723c-22.817,0-21.605,2.387-21.605-20.02c0-7.505,4.538-32.802-4.312-37.509
	c-32.073-17.061-23.146,39.573-23.146,54.775c-18.75-1.863-35.218-1.622-54.012,0.227c0-11.644,8.448-57.583-11.388-57.583
	c-25.74,0-15.618,43.255-15.618,60.625c0,0.105-53.826,18.517-59.542,22.603c-17.498,12.51-39.379,32.446-41.602,55.792
	c-2.478,26.021-4.905,49.41,6.231,73.505c9.916,21.451,31.29,33.271,51.405,43.89c11.192,5.909,21.311,9.515,33.473,13.241
	c11.587,3.551,10.034,3.913,10.034,16.181c0,29.227,0,58.454,0,87.68c-22.143-9.754-44.34-26.456-60.528-44.654
	c-7.977-8.969-14.248-21.505-20.974-31.474c-10.364-15.364-7.494-17.386-26.521-21.667c3.222,24.164,6.444,48.33,9.666,72.494
	c1.787,13.406,0.579,63.987,0.579,63.987l13.276,2.468c0,0,27.171-28.748,48.829-28.748c8.759,0,17.66,0.906,26.37,1.859
	c13.728,1.499,9.304,7.676,9.304,20.928c0,18.388-6.248,42.515,19.618,39.282c14.163-1.77,7.388-47.883,7.388-56.912
	c18.138,1.424,35.848,1.637,54.012,0.924c0,14.51,0,29.02,0,43.528c0,10.008,12.553,18.599,22.23,12.242
	c9.891-6.496,5.228-30.082,5.228-39.209c0-3.083,0-20.013,0-20.013S357,746.5,378.5,737.5S463.396,688.763,451.255,628.052z
	 M252.632,477.778C245,449,280.5,421.5,307.933,431.477c0.567,23.523,3.485,75.203,3.485,86.897
	C287.956,511.725,260.264,506.557,252.632,477.778z M319.711,715.167c-6.131,13.67-17.905,20.276-28.558,22.555
	s-33.747,4.847-33.747,0.739c0-32.007,0-64.012,0-96.018c19.73,5.436,37.215,14.451,51.654,24.504S326.489,700.054,319.711,715.167z
	"/>
<g>
	<path d="M69.855,841.019c0,0-0.086,1.835-0.524,5.039c-0.209,1.605-0.541,3.547-1.078,5.754c-0.541,2.206-1.213,4.706-2.32,7.368
		c-1.14,2.638-2.581,5.534-5.25,8.196c-0.339,0.326-0.714,0.639-1.084,0.957c-0.409,0.29-0.797,0.606-1.247,0.872l-0.683,0.396
		l-0.173,0.098l-0.043,0.024l-0.087,0.041l-0.068,0.033l-0.274,0.134l-0.553,0.269l-0.654,0.287
		c-1.709,0.742-3.437,1.318-5.257,1.791c-3.625,0.909-7.479,1.463-11.455,1.221c-1.987-0.111-4.016-0.321-6.072-0.899
		c-1.031-0.278-2.073-0.617-3.142-1.08c-1.067-0.47-2.168-1.043-3.303-1.955c-2.295-1.938-3.475-4.542-3.93-7.022
		c-0.447-2.505-0.236-5.034,0.602-7.297c0.83-2.266,2.209-4.239,3.834-5.78c1.618-1.561,3.506-2.648,5.374-3.402l0.8-0.317
		l0.609-0.189c0.405-0.126,0.808-0.252,1.209-0.376c0.847-0.244,1.767-0.47,2.627-0.694c1.682-0.379,3.298-0.71,4.875-0.982
		c3.15-0.554,6.115-0.975,8.857-1.287c2.74-0.322,5.244-0.605,7.476-0.76c2.23-0.165,4.169-0.317,5.774-0.385
		c3.208-0.112,5.04-0.177,5.04-0.177c0.064-0.002,0.118,0.048,0.121,0.112C69.856,841.009,69.855,841.016,69.855,841.019z
		 M69.603,841.149c-0.196,0.053-0.569,0.152-1.11,0.297c-0.831,0.21-2.048,0.517-3.598,0.907c-1.549,0.371-3.431,0.821-5.589,1.338
		c-2.147,0.559-4.593,1.047-7.232,1.696c-1.322,0.313-2.693,0.657-4.106,1.026c-1.419,0.339-2.883,0.702-4.371,1.108
		c-1.492,0.396-3.006,0.851-4.526,1.335c-0.736,0.255-1.468,0.475-2.233,0.753c-0.39,0.154-0.781,0.309-1.175,0.464l-0.591,0.233
		l-0.464,0.223c-2.744,1.323-5.153,3.499-6.125,6.412c-0.489,1.433-0.62,3.006-0.339,4.489c0.269,1.482,0.985,2.861,2.034,3.752
		c1.082,0.923,2.688,1.601,4.3,2.079c1.63,0.485,3.344,0.786,5.058,0.969c3.434,0.341,6.895,0.263,10.164-0.289
		c1.632-0.272,3.231-0.655,4.73-1.159c1.568-0.507,2.858-1.092,4.014-2.061c2.296-1.888,3.931-4.368,5.219-6.715
		c1.289-2.367,2.243-4.671,3.012-6.738c0.76-2.072,1.335-3.914,1.768-5.442C69.15,843.312,69.499,841.657,69.603,841.149z"/>
</g>
<path fill="none" stroke="#000000" stroke-width="12" stroke-linecap="round" stroke-linejoin="round" d="M308,236c0,0-23,30-70-1"
	/>
</svg>
